M48
; DRILL file KiCad 10.0.5 date 2026-08-12T23:43:58
; FORMAT={-:-/ absolute / metric / decimal}
; #@! TF.CreationDate,2026-08-12T23:43:58+03:00
; #@! TF.GenerationSoftware,Kicad,Pcbnew,10.0.5
; #@! TF.FileFunction,Plated,1,2,PTH
FMAT,2
METRIC
; #@! TA.AperFunction,Plated,PTH,ComponentDrill
T1C0.200
; #@! TA.AperFunction,Plated,PTH,ViaDrill
T2C0.300
; #@! TA.AperFunction,Plated,PTH,ComponentDrill
T3C0.800
; #@! TA.AperFunction,Plated,PTH,ComponentDrill
T4C0.900
; #@! TA.AperFunction,Plated,PTH,ComponentDrill
T5C1.000
%
G90
G05
T1
X127.32Y-98.093
X127.32Y-99.617
X128.082Y-97.33
X128.082Y-98.855
X128.082Y-100.38
X128.845Y-98.093
X128.845Y-99.617
X129.607Y-97.33
X129.607Y-98.855
X129.607Y-100.38
X130.37Y-98.093
X130.37Y-99.617
T2
X135.45Y-91.515
T3
X119.5Y-132.42
X119.5Y-142.58
T4
X117.96Y-150.5
X120.5Y-150.5
T5
X100.96Y-94.5
X103.5Y-94.5
X106.04Y-94.5
X108.58Y-94.5
X143.0Y-136.0
X143.0Y-138.54
X156.345Y-110.345
X156.345Y-112.885
X156.345Y-115.425
X156.345Y-117.965
X160.935Y-110.345
X160.935Y-112.885
X160.935Y-115.425
M30
