%TF.GenerationSoftware,KiCad,Pcbnew,10.0.5*%
%TF.CreationDate,2026-08-12T23:42:38+03:00*%
%TF.ProjectId,ESP32_Radar_System,45535033-325f-4526-9164-61725f537973,rev?*%
%TF.SameCoordinates,Original*%
%TF.FileFunction,Soldermask,Top*%
%TF.FilePolarity,Negative*%
%FSLAX46Y46*%
G04 Gerber Fmt 4.6, Leading zero omitted, Abs format (unit mm)*
G04 Created by KiCad (PCBNEW 10.0.5) date 2026-08-12 23:42:38*
%MOMM*%
%LPD*%
G01*
G04 APERTURE LIST*
G04 Aperture macros list*
%AMRoundRect*
0 Rectangle with rounded corners*
0 $1 Rounding radius*
0 $2 $3 $4 $5 $6 $7 $8 $9 X,Y pos of 4 corners*
0 Add a 4 corners polygon primitive as box body*
4,1,4,$2,$3,$4,$5,$6,$7,$8,$9,$2,$3,0*
0 Add four circle primitives for the rounded corners*
1,1,$1+$1,$2,$3*
1,1,$1+$1,$4,$5*
1,1,$1+$1,$6,$7*
1,1,$1+$1,$8,$9*
0 Add four rect primitives between the rounded corners*
20,1,$1+$1,$2,$3,$4,$5,0*
20,1,$1+$1,$4,$5,$6,$7,0*
20,1,$1+$1,$6,$7,$8,$9,0*
20,1,$1+$1,$8,$9,$2,$3,0*%
G04 Aperture macros list end*
%ADD10R,1.700000X1.700000*%
%ADD11C,1.700000*%
%ADD12R,1.500000X0.900000*%
%ADD13R,0.900000X1.500000*%
%ADD14C,0.600000*%
%ADD15R,4.200000X4.200000*%
%ADD16RoundRect,0.170000X-0.680000X-0.680000X0.680000X-0.680000X0.680000X0.680000X-0.680000X0.680000X0*%
%ADD17C,1.600000*%
%ADD18R,1.800000X1.800000*%
%ADD19C,1.800000*%
G04 APERTURE END LIST*
D10*
%TO.C,J1*%
X156345000Y-110345000D03*
D11*
X156345000Y-112885000D03*
X156345000Y-115425000D03*
X156345000Y-117965000D03*
%TD*%
D12*
%TO.C,U1*%
X120775000Y-91515000D03*
X120775000Y-92785000D03*
X120775000Y-94055000D03*
X120775000Y-95325000D03*
X120775000Y-96595000D03*
X120775000Y-97865000D03*
X120775000Y-99135000D03*
X120775000Y-100405000D03*
X120775000Y-101675000D03*
X120775000Y-102945000D03*
X120775000Y-104215000D03*
X120775000Y-105485000D03*
X120775000Y-106755000D03*
X120775000Y-108025000D03*
D13*
X123815000Y-109275000D03*
X125085000Y-109275000D03*
X126355000Y-109275000D03*
X127625000Y-109275000D03*
X128895000Y-109275000D03*
X130165000Y-109275000D03*
X131435000Y-109275000D03*
X132705000Y-109275000D03*
X133975000Y-109275000D03*
X135245000Y-109275000D03*
D12*
X138275000Y-108025000D03*
X138275000Y-106755000D03*
X138275000Y-105485000D03*
X138275000Y-104215000D03*
X138275000Y-102945000D03*
X138275000Y-101675000D03*
X138275000Y-100405000D03*
X138275000Y-99135000D03*
X138275000Y-97865000D03*
X138275000Y-96595000D03*
X138275000Y-95325000D03*
X138275000Y-94055000D03*
X138275000Y-92785000D03*
X138275000Y-91515000D03*
D14*
X127320000Y-98092500D03*
X127320000Y-99617500D03*
X128082500Y-97330000D03*
X128082500Y-98855000D03*
X128082500Y-100380000D03*
X128845000Y-98092500D03*
D15*
X128845000Y-98855000D03*
D14*
X128845000Y-99617500D03*
X129607500Y-97330000D03*
X129607500Y-98855000D03*
X129607500Y-100380000D03*
X130370000Y-98092500D03*
X130370000Y-99617500D03*
%TD*%
D10*
%TO.C,BZ1*%
X143000000Y-136000000D03*
D11*
X143000000Y-138540000D03*
%TD*%
D16*
%TO.C,U2*%
X100960000Y-94500000D03*
D11*
X103500000Y-94500000D03*
X106040000Y-94500000D03*
X108580000Y-94500000D03*
%TD*%
D10*
%TO.C,M1*%
X160935000Y-110345000D03*
D11*
X160935000Y-112885000D03*
X160935000Y-115425000D03*
%TD*%
D17*
%TO.C,R1*%
X119500000Y-132420000D03*
X119500000Y-142580000D03*
%TD*%
D18*
%TO.C,D1*%
X117960000Y-150500000D03*
D19*
X120500000Y-150500000D03*
%TD*%
M02*
