%TF.GenerationSoftware,KiCad,Pcbnew,10.0.5*%
%TF.CreationDate,2026-08-12T23:42:38+03:00*%
%TF.ProjectId,ESP32_Radar_System,45535033-325f-4526-9164-61725f537973,rev?*%
%TF.SameCoordinates,Original*%
%TF.FileFunction,Legend,Top*%
%TF.FilePolarity,Positive*%
%FSLAX46Y46*%
G04 Gerber Fmt 4.6, Leading zero omitted, Abs format (unit mm)*
G04 Created by KiCad (PCBNEW 10.0.5) date 2026-08-12 23:42:38*
%MOMM*%
%LPD*%
G01*
G04 APERTURE LIST*
%ADD10C,0.150000*%
%ADD11C,0.120000*%
G04 APERTURE END LIST*
D10*
X156011666Y-107419819D02*
X156011666Y-108134104D01*
X156011666Y-108134104D02*
X155964047Y-108276961D01*
X155964047Y-108276961D02*
X155868809Y-108372200D01*
X155868809Y-108372200D02*
X155725952Y-108419819D01*
X155725952Y-108419819D02*
X155630714Y-108419819D01*
X157011666Y-108419819D02*
X156440238Y-108419819D01*
X156725952Y-108419819D02*
X156725952Y-107419819D01*
X156725952Y-107419819D02*
X156630714Y-107562676D01*
X156630714Y-107562676D02*
X156535476Y-107657914D01*
X156535476Y-107657914D02*
X156440238Y-107705533D01*
X118369819Y-108956904D02*
X119179342Y-108956904D01*
X119179342Y-108956904D02*
X119274580Y-108909285D01*
X119274580Y-108909285D02*
X119322200Y-108861666D01*
X119322200Y-108861666D02*
X119369819Y-108766428D01*
X119369819Y-108766428D02*
X119369819Y-108575952D01*
X119369819Y-108575952D02*
X119322200Y-108480714D01*
X119322200Y-108480714D02*
X119274580Y-108433095D01*
X119274580Y-108433095D02*
X119179342Y-108385476D01*
X119179342Y-108385476D02*
X118369819Y-108385476D01*
X119369819Y-107385476D02*
X119369819Y-107956904D01*
X119369819Y-107671190D02*
X118369819Y-107671190D01*
X118369819Y-107671190D02*
X118512676Y-107766428D01*
X118512676Y-107766428D02*
X118607914Y-107861666D01*
X118607914Y-107861666D02*
X118655533Y-107956904D01*
X142119047Y-133551009D02*
X142261904Y-133598628D01*
X142261904Y-133598628D02*
X142309523Y-133646247D01*
X142309523Y-133646247D02*
X142357142Y-133741485D01*
X142357142Y-133741485D02*
X142357142Y-133884342D01*
X142357142Y-133884342D02*
X142309523Y-133979580D01*
X142309523Y-133979580D02*
X142261904Y-134027200D01*
X142261904Y-134027200D02*
X142166666Y-134074819D01*
X142166666Y-134074819D02*
X141785714Y-134074819D01*
X141785714Y-134074819D02*
X141785714Y-133074819D01*
X141785714Y-133074819D02*
X142119047Y-133074819D01*
X142119047Y-133074819D02*
X142214285Y-133122438D01*
X142214285Y-133122438D02*
X142261904Y-133170057D01*
X142261904Y-133170057D02*
X142309523Y-133265295D01*
X142309523Y-133265295D02*
X142309523Y-133360533D01*
X142309523Y-133360533D02*
X142261904Y-133455771D01*
X142261904Y-133455771D02*
X142214285Y-133503390D01*
X142214285Y-133503390D02*
X142119047Y-133551009D01*
X142119047Y-133551009D02*
X141785714Y-133551009D01*
X142690476Y-133074819D02*
X143357142Y-133074819D01*
X143357142Y-133074819D02*
X142690476Y-134074819D01*
X142690476Y-134074819D02*
X143357142Y-134074819D01*
X144261904Y-134074819D02*
X143690476Y-134074819D01*
X143976190Y-134074819D02*
X143976190Y-133074819D01*
X143976190Y-133074819D02*
X143880952Y-133217676D01*
X143880952Y-133217676D02*
X143785714Y-133312914D01*
X143785714Y-133312914D02*
X143690476Y-133360533D01*
X104198095Y-91454819D02*
X104198095Y-92264342D01*
X104198095Y-92264342D02*
X104245714Y-92359580D01*
X104245714Y-92359580D02*
X104293333Y-92407200D01*
X104293333Y-92407200D02*
X104388571Y-92454819D01*
X104388571Y-92454819D02*
X104579047Y-92454819D01*
X104579047Y-92454819D02*
X104674285Y-92407200D01*
X104674285Y-92407200D02*
X104721904Y-92359580D01*
X104721904Y-92359580D02*
X104769523Y-92264342D01*
X104769523Y-92264342D02*
X104769523Y-91454819D01*
X105198095Y-91550057D02*
X105245714Y-91502438D01*
X105245714Y-91502438D02*
X105340952Y-91454819D01*
X105340952Y-91454819D02*
X105579047Y-91454819D01*
X105579047Y-91454819D02*
X105674285Y-91502438D01*
X105674285Y-91502438D02*
X105721904Y-91550057D01*
X105721904Y-91550057D02*
X105769523Y-91645295D01*
X105769523Y-91645295D02*
X105769523Y-91740533D01*
X105769523Y-91740533D02*
X105721904Y-91883390D01*
X105721904Y-91883390D02*
X105150476Y-92454819D01*
X105150476Y-92454819D02*
X105769523Y-92454819D01*
X160125476Y-108419819D02*
X160125476Y-107419819D01*
X160125476Y-107419819D02*
X160458809Y-108134104D01*
X160458809Y-108134104D02*
X160792142Y-107419819D01*
X160792142Y-107419819D02*
X160792142Y-108419819D01*
X161792142Y-108419819D02*
X161220714Y-108419819D01*
X161506428Y-108419819D02*
X161506428Y-107419819D01*
X161506428Y-107419819D02*
X161411190Y-107562676D01*
X161411190Y-107562676D02*
X161315952Y-107657914D01*
X161315952Y-107657914D02*
X161220714Y-107705533D01*
X122324819Y-137666666D02*
X121848628Y-137999999D01*
X122324819Y-138238094D02*
X121324819Y-138238094D01*
X121324819Y-138238094D02*
X121324819Y-137857142D01*
X121324819Y-137857142D02*
X121372438Y-137761904D01*
X121372438Y-137761904D02*
X121420057Y-137714285D01*
X121420057Y-137714285D02*
X121515295Y-137666666D01*
X121515295Y-137666666D02*
X121658152Y-137666666D01*
X121658152Y-137666666D02*
X121753390Y-137714285D01*
X121753390Y-137714285D02*
X121801009Y-137761904D01*
X121801009Y-137761904D02*
X121848628Y-137857142D01*
X121848628Y-137857142D02*
X121848628Y-138238094D01*
X122324819Y-136714285D02*
X122324819Y-137285713D01*
X122324819Y-136999999D02*
X121324819Y-136999999D01*
X121324819Y-136999999D02*
X121467676Y-137095237D01*
X121467676Y-137095237D02*
X121562914Y-137190475D01*
X121562914Y-137190475D02*
X121610533Y-137285713D01*
X118491905Y-146994819D02*
X118491905Y-145994819D01*
X118491905Y-145994819D02*
X118730000Y-145994819D01*
X118730000Y-145994819D02*
X118872857Y-146042438D01*
X118872857Y-146042438D02*
X118968095Y-146137676D01*
X118968095Y-146137676D02*
X119015714Y-146232914D01*
X119015714Y-146232914D02*
X119063333Y-146423390D01*
X119063333Y-146423390D02*
X119063333Y-146566247D01*
X119063333Y-146566247D02*
X119015714Y-146756723D01*
X119015714Y-146756723D02*
X118968095Y-146851961D01*
X118968095Y-146851961D02*
X118872857Y-146947200D01*
X118872857Y-146947200D02*
X118730000Y-146994819D01*
X118730000Y-146994819D02*
X118491905Y-146994819D01*
X120015714Y-146994819D02*
X119444286Y-146994819D01*
X119730000Y-146994819D02*
X119730000Y-145994819D01*
X119730000Y-145994819D02*
X119634762Y-146137676D01*
X119634762Y-146137676D02*
X119539524Y-146232914D01*
X119539524Y-146232914D02*
X119444286Y-146280533D01*
%TO.C,J1*%
D11*
X154965000Y-108965000D02*
X156345000Y-108965000D01*
X154965000Y-110345000D02*
X154965000Y-108965000D01*
X154965000Y-111615000D02*
X154965000Y-119345000D01*
X154965000Y-111615000D02*
X157725000Y-111615000D01*
X154965000Y-119345000D02*
X157725000Y-119345000D01*
X157725000Y-111615000D02*
X157725000Y-119345000D01*
%TO.C,U1*%
X120405000Y-83905000D02*
X120405000Y-90065000D01*
X120405000Y-83905000D02*
X138645000Y-83905000D01*
X120405000Y-108865000D02*
X120405000Y-109645000D01*
X120405000Y-109645000D02*
X121405000Y-109645000D01*
X138645000Y-83905000D02*
X138645000Y-90320000D01*
X138645000Y-108865000D02*
X138645000Y-109645000D01*
X138645000Y-109645000D02*
X137645000Y-109645000D01*
X120400000Y-90790000D02*
X119900000Y-90790000D01*
X120400000Y-90290000D01*
X120400000Y-90790000D01*
G36*
X120400000Y-90790000D02*
G01*
X119900000Y-90790000D01*
X120400000Y-90290000D01*
X120400000Y-90790000D01*
G37*
%TO.C,BZ1*%
X141620000Y-134620000D02*
X143000000Y-134620000D01*
X141620000Y-136000000D02*
X141620000Y-134620000D01*
X141620000Y-137270000D02*
X141620000Y-139920000D01*
X141620000Y-137270000D02*
X144380000Y-137270000D01*
X141620000Y-139920000D02*
X144380000Y-139920000D01*
X144380000Y-137270000D02*
X144380000Y-139920000D01*
%TO.C,U2*%
X99580000Y-94500000D02*
X99580000Y-95880000D01*
X100960000Y-95880000D02*
X99580000Y-95880000D01*
X98770000Y-93000000D02*
X110770000Y-93000000D01*
X110770000Y-131000000D01*
X98770000Y-131000000D01*
X98770000Y-93000000D01*
%TO.C,M1*%
X159555000Y-108965000D02*
X160935000Y-108965000D01*
X159555000Y-110345000D02*
X159555000Y-108965000D01*
X159555000Y-111615000D02*
X159555000Y-116805000D01*
X159555000Y-111615000D02*
X162315000Y-111615000D01*
X159555000Y-116805000D02*
X162315000Y-116805000D01*
X162315000Y-111615000D02*
X162315000Y-116805000D01*
%TO.C,R1*%
X119500000Y-133460000D02*
X119500000Y-134230000D01*
X119500000Y-141540000D02*
X119500000Y-140770000D01*
X118130000Y-134230000D02*
X120870000Y-134230000D01*
X120870000Y-140770000D01*
X118130000Y-140770000D01*
X118130000Y-134230000D01*
%TO.C,D1*%
X116670000Y-148955000D02*
X116670000Y-152045000D01*
X116670000Y-148955170D02*
G75*
G02*
X122220000Y-150500000I2560000J-1544830D01*
G01*
X122220000Y-150500000D02*
G75*
G02*
X116670000Y-152044830I-2990000J0D01*
G01*
X121730000Y-150500000D02*
G75*
G02*
X116730000Y-150500000I-2500000J0D01*
G01*
X116730000Y-150500000D02*
G75*
G02*
X121730000Y-150500000I2500000J0D01*
G01*
%TD*%
M02*
