%TF.GenerationSoftware,KiCad,Pcbnew,10.0.5*%
%TF.CreationDate,2026-08-12T23:42:37+03:00*%
%TF.ProjectId,ESP32_Radar_System,45535033-325f-4526-9164-61725f537973,rev?*%
%TF.SameCoordinates,Original*%
%TF.FileFunction,Copper,L1,Top*%
%TF.FilePolarity,Positive*%
%FSLAX46Y46*%
G04 Gerber Fmt 4.6, Leading zero omitted, Abs format (unit mm)*
G04 Created by KiCad (PCBNEW 10.0.5) date 2026-08-12 23:42:37*
%MOMM*%
%LPD*%
G01*
G04 APERTURE LIST*
G04 Aperture macros list*
%AMRoundRect*
0 Rectangle with rounded corners*
0 $1 Rounding radius*
0 $2 $3 $4 $5 $6 $7 $8 $9 X,Y pos of 4 corners*
0 Add a 4 corners polygon primitive as box body*
4,1,4,$2,$3,$4,$5,$6,$7,$8,$9,$2,$3,0*
0 Add four circle primitives for the rounded corners*
1,1,$1+$1,$2,$3*
1,1,$1+$1,$4,$5*
1,1,$1+$1,$6,$7*
1,1,$1+$1,$8,$9*
0 Add four rect primitives between the rounded corners*
20,1,$1+$1,$2,$3,$4,$5,0*
20,1,$1+$1,$4,$5,$6,$7,0*
20,1,$1+$1,$6,$7,$8,$9,0*
20,1,$1+$1,$8,$9,$2,$3,0*%
G04 Aperture macros list end*
%TA.AperFunction,ComponentPad*%
%ADD10R,1.700000X1.700000*%
%TD*%
%TA.AperFunction,ComponentPad*%
%ADD11C,1.700000*%
%TD*%
%TA.AperFunction,SMDPad,CuDef*%
%ADD12R,1.500000X0.900000*%
%TD*%
%TA.AperFunction,SMDPad,CuDef*%
%ADD13R,0.900000X1.500000*%
%TD*%
%TA.AperFunction,SMDPad,CuDef*%
%ADD14R,1.050000X1.050000*%
%TD*%
%TA.AperFunction,HeatsinkPad*%
%ADD15C,0.600000*%
%TD*%
%TA.AperFunction,HeatsinkPad*%
%ADD16R,4.200000X4.200000*%
%TD*%
%TA.AperFunction,ComponentPad*%
%ADD17RoundRect,0.170000X-0.680000X-0.680000X0.680000X-0.680000X0.680000X0.680000X-0.680000X0.680000X0*%
%TD*%
%TA.AperFunction,ComponentPad*%
%ADD18C,1.600000*%
%TD*%
%TA.AperFunction,ComponentPad*%
%ADD19R,1.800000X1.800000*%
%TD*%
%TA.AperFunction,ComponentPad*%
%ADD20C,1.800000*%
%TD*%
%TA.AperFunction,ViaPad*%
%ADD21C,0.600000*%
%TD*%
%TA.AperFunction,Conductor*%
%ADD22C,0.200000*%
%TD*%
G04 APERTURE END LIST*
D10*
%TO.P,J1,1,Pin_1_1*%
%TO.N,+5V*%
X156345000Y-110345000D03*
D11*
%TO.P,J1,2,Pin_2_2*%
%TO.N,Net-(J1-Pin_2)*%
X156345000Y-112885000D03*
%TO.P,J1,3,Pin_3_3*%
%TO.N,Net-(J1-Pin_3)*%
X156345000Y-115425000D03*
%TO.P,J1,4,Pin_4_4*%
%TO.N,GND*%
X156345000Y-117965000D03*
%TD*%
D12*
%TO.P,U1,1,GND_1*%
%TO.N,GND*%
X120775000Y-91515000D03*
%TO.P,U1,2,VDD_2*%
%TO.N,+3.3V*%
X120775000Y-92785000D03*
%TO.P,U1,3,EN_3*%
%TO.N,unconnected-(U1-EN-Pad3)*%
X120775000Y-94055000D03*
%TO.P,U1,4,SENSOR_VP_4*%
%TO.N,unconnected-(U1-SENSOR_VP-Pad4)*%
X120775000Y-95325000D03*
%TO.P,U1,5,SENSOR_VN_5*%
%TO.N,unconnected-(U1-SENSOR_VN-Pad5)*%
X120775000Y-96595000D03*
%TO.P,U1,6,IO34_6*%
%TO.N,unconnected-(U1-IO34-Pad6)*%
X120775000Y-97865000D03*
%TO.P,U1,7,IO35_7*%
%TO.N,unconnected-(U1-IO35-Pad7)*%
X120775000Y-99135000D03*
%TO.P,U1,8,IO32_8*%
%TO.N,unconnected-(U1-IO32-Pad8)*%
X120775000Y-100405000D03*
%TO.P,U1,9,IO33_9*%
%TO.N,unconnected-(U1-IO33-Pad9)*%
X120775000Y-101675000D03*
%TO.P,U1,10,IO25_10*%
%TO.N,Net-(BZ1-+)*%
X120775000Y-102945000D03*
%TO.P,U1,11,IO26_11*%
%TO.N,Net-(U1-IO26)*%
X120775000Y-104215000D03*
%TO.P,U1,12,IO27_12*%
%TO.N,unconnected-(U1-IO27-Pad12)*%
X120775000Y-105485000D03*
%TO.P,U1,13,IO14_13*%
%TO.N,unconnected-(U1-IO14-Pad13)*%
X120775000Y-106755000D03*
%TO.P,U1,14,IO12_14*%
%TO.N,unconnected-(U1-IO12-Pad14)*%
X120775000Y-108025000D03*
D13*
%TO.P,U1,15,GND_15*%
%TO.N,GND*%
X123815000Y-109275000D03*
%TO.P,U1,16,IO13_16*%
%TO.N,unconnected-(U1-IO13-Pad16)*%
X125085000Y-109275000D03*
%TO.P,U1,17,SHD/SD2_17*%
%TO.N,unconnected-(U1-SHD{slash}SD2-Pad17)*%
X126355000Y-109275000D03*
%TO.P,U1,18,SWP/SD3_18*%
%TO.N,unconnected-(U1-SWP{slash}SD3-Pad18)*%
X127625000Y-109275000D03*
%TO.P,U1,19,SCS/CMD_19*%
%TO.N,unconnected-(U1-SCS{slash}CMD-Pad19)*%
X128895000Y-109275000D03*
%TO.P,U1,20,SCK/CLK_20*%
%TO.N,unconnected-(U1-SCK{slash}CLK-Pad20)*%
X130165000Y-109275000D03*
%TO.P,U1,21,SDO/SD0_21*%
%TO.N,unconnected-(U1-SDO{slash}SD0-Pad21)*%
X131435000Y-109275000D03*
%TO.P,U1,22,SDI/SD1_22*%
%TO.N,unconnected-(U1-SDI{slash}SD1-Pad22)*%
X132705000Y-109275000D03*
%TO.P,U1,23,IO15_23*%
%TO.N,unconnected-(U1-IO15-Pad23)*%
X133975000Y-109275000D03*
%TO.P,U1,24,IO2_24*%
%TO.N,unconnected-(U1-IO2-Pad24)*%
X135245000Y-109275000D03*
D12*
%TO.P,U1,25,IO0_25*%
%TO.N,unconnected-(U1-IO0-Pad25)*%
X138275000Y-108025000D03*
%TO.P,U1,26,IO4_26*%
%TO.N,Net-(J1-Pin_3)*%
X138275000Y-106755000D03*
%TO.P,U1,27,IO16_27*%
%TO.N,unconnected-(U1-IO16-Pad27)*%
X138275000Y-105485000D03*
%TO.P,U1,28,IO17_28*%
%TO.N,unconnected-(U1-IO17-Pad28)*%
X138275000Y-104215000D03*
%TO.P,U1,29,IO5_29*%
%TO.N,Net-(J1-Pin_2)*%
X138275000Y-102945000D03*
%TO.P,U1,30,IO18_30*%
%TO.N,Net-(M1-PWM)*%
X138275000Y-101675000D03*
%TO.P,U1,31,IO19_31*%
%TO.N,unconnected-(U1-IO19-Pad31)*%
X138275000Y-100405000D03*
%TO.P,U1,32,NC_32*%
%TO.N,unconnected-(U1-NC-Pad32)*%
X138275000Y-99135000D03*
%TO.P,U1,33,IO21_33*%
%TO.N,Net-(U1-IO21)*%
X138275000Y-97865000D03*
%TO.P,U1,34,RXD0/IO3_34*%
%TO.N,unconnected-(U1-RXD0{slash}IO3-Pad34)*%
X138275000Y-96595000D03*
%TO.P,U1,35,TXD0/IO1_35*%
%TO.N,unconnected-(U1-TXD0{slash}IO1-Pad35)*%
X138275000Y-95325000D03*
%TO.P,U1,36,IO22_36*%
%TO.N,Net-(U1-IO22)*%
X138275000Y-94055000D03*
%TO.P,U1,37,IO23_37*%
%TO.N,unconnected-(U1-IO23-Pad37)*%
X138275000Y-92785000D03*
%TO.P,U1,38,GND_38*%
%TO.N,GND*%
X138275000Y-91515000D03*
D14*
%TO.P,U1,39,GND_39*%
X127320000Y-97330000D03*
D15*
X127320000Y-98092500D03*
D14*
X127320000Y-98855000D03*
D15*
X127320000Y-99617500D03*
D14*
X127320000Y-100380000D03*
D15*
X128082500Y-97330000D03*
X128082500Y-98855000D03*
X128082500Y-100380000D03*
D14*
X128845000Y-97330000D03*
D15*
X128845000Y-98092500D03*
D14*
X128845000Y-98855000D03*
D16*
X128845000Y-98855000D03*
D15*
X128845000Y-99617500D03*
D14*
X128845000Y-100380000D03*
D15*
X129607500Y-97330000D03*
X129607500Y-98855000D03*
X129607500Y-100380000D03*
D14*
X130370000Y-97330000D03*
D15*
X130370000Y-98092500D03*
D14*
X130370000Y-98855000D03*
D15*
X130370000Y-99617500D03*
D14*
X130370000Y-100380000D03*
%TD*%
D10*
%TO.P,BZ1,1,+_1*%
%TO.N,Net-(BZ1-+)*%
X143000000Y-136000000D03*
D11*
%TO.P,BZ1,2,-_2*%
%TO.N,GND*%
X143000000Y-138540000D03*
%TD*%
D17*
%TO.P,U2,1,GND_1*%
%TO.N,GND*%
X100960000Y-94500000D03*
D11*
%TO.P,U2,2,VCC_2*%
%TO.N,+3.3V*%
X103500000Y-94500000D03*
%TO.P,U2,3,SCL_3*%
%TO.N,Net-(U1-IO22)*%
X106040000Y-94500000D03*
%TO.P,U2,4,SDA_4*%
%TO.N,Net-(U1-IO21)*%
X108580000Y-94500000D03*
%TD*%
D10*
%TO.P,M1,1,PWM_1*%
%TO.N,Net-(M1-PWM)*%
X160935000Y-110345000D03*
D11*
%TO.P,M1,2,+_2*%
%TO.N,+5V*%
X160935000Y-112885000D03*
%TO.P,M1,3,-_3*%
%TO.N,GND*%
X160935000Y-115425000D03*
%TD*%
D18*
%TO.P,R1,1*%
%TO.N,Net-(U1-IO26)*%
X119500000Y-132420000D03*
%TO.P,R1,2*%
%TO.N,Net-(D1-K)*%
X119500000Y-142580000D03*
%TD*%
D19*
%TO.P,D1,1,K_1*%
%TO.N,Net-(D1-K)*%
X117960000Y-150500000D03*
D20*
%TO.P,D1,2,A_2*%
%TO.N,GND*%
X120500000Y-150500000D03*
%TD*%
D21*
%TO.N,GND*%
X135450000Y-91515000D03*
%TD*%
%TO.N,+5V*%
D22*
X161000000Y-112950000D02*
X160935000Y-112885000D01*
X158505000Y-110345000D02*
X156345000Y-110345000D01*
X158600000Y-112750000D02*
X158600000Y-110350000D01*
X161000000Y-113000000D02*
X161000000Y-112950000D01*
X160935000Y-112885000D02*
X158735000Y-112885000D01*
X158735000Y-112885000D02*
X158600000Y-112750000D01*
X158600000Y-110350000D02*
X158550000Y-110300000D01*
X158550000Y-110300000D02*
X158505000Y-110345000D01*
%TO.N,Net-(J1-Pin_2)*%
X153500000Y-113000000D02*
X153615000Y-112885000D01*
X153615000Y-112885000D02*
X156345000Y-112885000D01*
X153500000Y-103000000D02*
X153500000Y-113000000D01*
X153445000Y-102945000D02*
X153500000Y-103000000D01*
X138275000Y-102945000D02*
X153445000Y-102945000D01*
%TO.N,Net-(J1-Pin_3)*%
X153000000Y-115500000D02*
X153000000Y-107000000D01*
X153000000Y-107000000D02*
X152500000Y-107000000D01*
X152500000Y-107000000D02*
X152255000Y-106755000D01*
X152255000Y-106755000D02*
X138275000Y-106755000D01*
X153075000Y-115425000D02*
X153000000Y-115500000D01*
X156345000Y-115425000D02*
X153075000Y-115425000D01*
%TO.N,GND*%
X127320000Y-97330000D02*
X124780000Y-97330000D01*
X120500000Y-150500000D02*
X142900000Y-150500000D01*
X135580000Y-97330000D02*
X135580000Y-91645000D01*
X135650000Y-97300000D02*
X135600000Y-97350000D01*
X123850000Y-107500000D02*
X123815000Y-107535000D01*
X130450000Y-107950000D02*
X137000000Y-107950000D01*
X118040000Y-95670000D02*
X118040000Y-91570000D01*
X118095000Y-91515000D02*
X120775000Y-91515000D01*
X130370000Y-97330000D02*
X135580000Y-97330000D01*
X124780000Y-97330000D02*
X124750000Y-97300000D01*
X100960000Y-94500000D02*
X100960000Y-93430000D01*
X130400000Y-107500000D02*
X123850000Y-107500000D01*
X137000000Y-107950000D02*
X137000000Y-117950000D01*
X104830000Y-93340000D02*
X104830000Y-95600000D01*
X160935000Y-115425000D02*
X160935000Y-117985000D01*
X156345000Y-138655000D02*
X156345000Y-117965000D01*
X143000000Y-150600000D02*
X143000000Y-138540000D01*
X130400000Y-107500000D02*
X130400000Y-107900000D01*
X156250000Y-138750000D02*
X156345000Y-138655000D01*
X104830000Y-95600000D02*
X104900000Y-95670000D01*
X160915000Y-117965000D02*
X156345000Y-117965000D01*
X142900000Y-150500000D02*
X143000000Y-150600000D01*
X124650000Y-91650000D02*
X124515000Y-91515000D01*
X160935000Y-117985000D02*
X160915000Y-117965000D01*
X100960000Y-93430000D02*
X100800000Y-93270000D01*
X130400000Y-100410000D02*
X130400000Y-107500000D01*
X129607500Y-97330000D02*
X127320000Y-99617500D01*
X135580000Y-97330000D02*
X135600000Y-97350000D01*
X124750000Y-97300000D02*
X124750000Y-91650000D01*
X130370000Y-97330000D02*
X127320000Y-97330000D01*
X123815000Y-107535000D02*
X123815000Y-109275000D01*
X130400000Y-107900000D02*
X130450000Y-107950000D01*
X124515000Y-91515000D02*
X120775000Y-91515000D01*
X137000000Y-117950000D02*
X137015000Y-117965000D01*
X104620000Y-93270000D02*
X104690000Y-93200000D01*
X104690000Y-93200000D02*
X104830000Y-93340000D01*
X130370000Y-97330000D02*
X128845000Y-98855000D01*
X118040000Y-91570000D02*
X118095000Y-91515000D01*
X135580000Y-91645000D02*
X135450000Y-91515000D01*
X130370000Y-97330000D02*
X129607500Y-97330000D01*
X137015000Y-117965000D02*
X156345000Y-117965000D01*
X130370000Y-100380000D02*
X130400000Y-100410000D01*
X104900000Y-95670000D02*
X118040000Y-95670000D01*
X143000000Y-138540000D02*
X156040000Y-138540000D01*
X124750000Y-91650000D02*
X124650000Y-91650000D01*
X100800000Y-93270000D02*
X104620000Y-93270000D01*
X156040000Y-138540000D02*
X156250000Y-138750000D01*
%TO.N,+3.3V*%
X118470000Y-96090000D02*
X118470000Y-92980000D01*
X118680000Y-92770000D02*
X118695000Y-92785000D01*
X103500000Y-96000000D02*
X103410000Y-96090000D01*
X103500000Y-94500000D02*
X103500000Y-96000000D01*
X103410000Y-96090000D02*
X118470000Y-96090000D01*
X118695000Y-92785000D02*
X120775000Y-92785000D01*
X118470000Y-92980000D02*
X118680000Y-92770000D01*
%TO.N,Net-(BZ1-+)*%
X122105000Y-102945000D02*
X120775000Y-102945000D01*
X122050000Y-103000000D02*
X122105000Y-102945000D01*
X143000000Y-136000000D02*
X122300000Y-136000000D01*
X122300000Y-136000000D02*
X122050000Y-136250000D01*
X122050000Y-136250000D02*
X122050000Y-103000000D01*
%TO.N,Net-(U1-IO26)*%
X117380000Y-132420000D02*
X117350000Y-132450000D01*
X117265000Y-104215000D02*
X120775000Y-104215000D01*
X117350000Y-132450000D02*
X117350000Y-104300000D01*
X117350000Y-104300000D02*
X117265000Y-104215000D01*
X119500000Y-132420000D02*
X117380000Y-132420000D01*
%TO.N,Net-(M1-PWM)*%
X160935000Y-110345000D02*
X160935000Y-102065000D01*
X161000000Y-102000000D02*
X160675000Y-101675000D01*
X160935000Y-102065000D02*
X161000000Y-102000000D01*
X160675000Y-101675000D02*
X138275000Y-101675000D01*
%TO.N,Net-(U1-IO21)*%
X136050000Y-97800000D02*
X136115000Y-97865000D01*
X136115000Y-97865000D02*
X138275000Y-97865000D01*
X108650000Y-90750000D02*
X136050000Y-90750000D01*
X108580000Y-90820000D02*
X108650000Y-90750000D01*
X108580000Y-94500000D02*
X108580000Y-90820000D01*
X136050000Y-90750000D02*
X136050000Y-97800000D01*
%TO.N,Net-(U1-IO22)*%
X136450000Y-93900000D02*
X136605000Y-94055000D01*
X106040000Y-90510000D02*
X106200000Y-90350000D01*
X106200000Y-90350000D02*
X136400000Y-90350000D01*
X136605000Y-94055000D02*
X138275000Y-94055000D01*
X136400000Y-90350000D02*
X136450000Y-90400000D01*
X136450000Y-90400000D02*
X136450000Y-93900000D01*
X106040000Y-94500000D02*
X106040000Y-90510000D01*
%TO.N,Net-(D1-K)*%
X117960000Y-142740000D02*
X118120000Y-142580000D01*
X118120000Y-142580000D02*
X119500000Y-142580000D01*
X117960000Y-150500000D02*
X117960000Y-142740000D01*
%TD*%
%TA.AperFunction,Conductor*%
%TO.N,GND*%
G36*
X105468039Y-69044685D02*
G01*
X105513794Y-69097489D01*
X105525000Y-69149000D01*
X105525000Y-89965000D01*
X105544153Y-89984153D01*
X105577638Y-90045476D01*
X105572654Y-90115168D01*
X105562443Y-90133609D01*
X105563544Y-90134245D01*
X105559480Y-90141283D01*
X105559480Y-90141284D01*
X105531110Y-90190423D01*
X105480423Y-90278215D01*
X105439499Y-90430943D01*
X105439499Y-90430945D01*
X105439499Y-90599046D01*
X105439500Y-90599059D01*
X105439500Y-93214281D01*
X105419815Y-93281320D01*
X105371795Y-93324765D01*
X105332185Y-93344947D01*
X105332184Y-93344948D01*
X105160213Y-93469890D01*
X105009890Y-93620213D01*
X104884949Y-93792182D01*
X104880484Y-93800946D01*
X104832509Y-93851742D01*
X104764688Y-93868536D01*
X104698553Y-93845998D01*
X104659516Y-93800946D01*
X104655050Y-93792182D01*
X104530109Y-93620213D01*
X104379786Y-93469890D01*
X104207820Y-93344951D01*
X104018414Y-93248444D01*
X104018413Y-93248443D01*
X104018412Y-93248443D01*
X103816243Y-93182754D01*
X103816241Y-93182753D01*
X103816240Y-93182753D01*
X103648172Y-93156134D01*
X103606287Y-93149500D01*
X103393713Y-93149500D01*
X103351828Y-93156134D01*
X103183760Y-93182753D01*
X102981585Y-93248444D01*
X102792179Y-93344951D01*
X102620215Y-93469889D01*
X102469790Y-93620314D01*
X102408467Y-93653798D01*
X102338775Y-93648814D01*
X102282842Y-93606942D01*
X102263724Y-93569522D01*
X102255462Y-93543009D01*
X102255459Y-93543001D01*
X102171289Y-93403766D01*
X102171286Y-93403762D01*
X102056237Y-93288713D01*
X102056233Y-93288710D01*
X101916998Y-93204540D01*
X101916992Y-93204538D01*
X101761662Y-93156135D01*
X101761655Y-93156134D01*
X101694151Y-93150000D01*
X101210000Y-93150000D01*
X101210000Y-94066988D01*
X101152993Y-94034075D01*
X101025826Y-94000000D01*
X100894174Y-94000000D01*
X100767007Y-94034075D01*
X100710000Y-94066988D01*
X100710000Y-93150000D01*
X100225837Y-93150000D01*
X100158348Y-93156132D01*
X100158341Y-93156134D01*
X100003010Y-93204537D01*
X100003001Y-93204540D01*
X99863766Y-93288710D01*
X99863762Y-93288713D01*
X99748713Y-93403762D01*
X99748710Y-93403766D01*
X99664540Y-93543001D01*
X99664538Y-93543007D01*
X99616135Y-93698337D01*
X99616134Y-93698344D01*
X99610000Y-93765848D01*
X99610000Y-94250000D01*
X100526988Y-94250000D01*
X100494075Y-94307007D01*
X100460000Y-94434174D01*
X100460000Y-94565826D01*
X100494075Y-94692993D01*
X100526988Y-94750000D01*
X99610001Y-94750000D01*
X99610001Y-95234162D01*
X99616132Y-95301651D01*
X99616134Y-95301658D01*
X99664537Y-95456989D01*
X99664540Y-95456998D01*
X99748710Y-95596233D01*
X99748713Y-95596237D01*
X99863762Y-95711286D01*
X99863766Y-95711289D01*
X100003001Y-95795459D01*
X100003007Y-95795461D01*
X100158337Y-95843864D01*
X100158344Y-95843865D01*
X100225848Y-95849999D01*
X100709999Y-95849999D01*
X100710000Y-95849998D01*
X100710000Y-94933012D01*
X100767007Y-94965925D01*
X100894174Y-95000000D01*
X101025826Y-95000000D01*
X101152993Y-94965925D01*
X101210000Y-94933012D01*
X101210000Y-95849999D01*
X101694161Y-95849999D01*
X101761651Y-95843867D01*
X101761658Y-95843865D01*
X101916989Y-95795462D01*
X101916998Y-95795459D01*
X102056233Y-95711289D01*
X102056237Y-95711286D01*
X102171286Y-95596237D01*
X102171289Y-95596233D01*
X102255459Y-95456998D01*
X102255460Y-95456995D01*
X102263723Y-95430478D01*
X102302460Y-95372330D01*
X102366485Y-95344355D01*
X102435471Y-95355436D01*
X102469790Y-95379686D01*
X102620213Y-95530109D01*
X102792182Y-95655050D01*
X102811393Y-95664839D01*
X102862188Y-95712813D01*
X102878983Y-95780634D01*
X102862485Y-95837322D01*
X102850424Y-95858212D01*
X102850423Y-95858214D01*
X102850423Y-95858215D01*
X102809499Y-96010943D01*
X102809499Y-96010945D01*
X102809499Y-96169054D01*
X102809498Y-96169054D01*
X102850423Y-96321785D01*
X102877518Y-96368715D01*
X102877520Y-96368717D01*
X102929479Y-96458714D01*
X102929481Y-96458717D01*
X103041284Y-96570520D01*
X103128095Y-96620639D01*
X103128097Y-96620641D01*
X103166151Y-96642611D01*
X103178215Y-96649577D01*
X103330943Y-96690501D01*
X103330946Y-96690501D01*
X103496653Y-96690501D01*
X103496669Y-96690500D01*
X118549055Y-96690500D01*
X118549057Y-96690500D01*
X118701784Y-96649577D01*
X118838716Y-96570520D01*
X118950520Y-96458716D01*
X119029577Y-96321784D01*
X119070500Y-96169057D01*
X119070500Y-93509500D01*
X119090185Y-93442461D01*
X119142989Y-93396706D01*
X119194500Y-93385500D01*
X119404906Y-93385500D01*
X119471945Y-93405185D01*
X119517700Y-93457989D01*
X119528195Y-93522752D01*
X119524500Y-93557127D01*
X119524500Y-93557128D01*
X119524500Y-93557132D01*
X119524500Y-94552870D01*
X119524501Y-94552876D01*
X119530908Y-94612481D01*
X119543659Y-94646669D01*
X119548642Y-94716361D01*
X119543659Y-94733331D01*
X119530908Y-94767518D01*
X119525670Y-94816243D01*
X119524501Y-94827123D01*
X119524500Y-94827135D01*
X119524500Y-95822870D01*
X119524501Y-95822876D01*
X119530908Y-95882481D01*
X119543659Y-95916669D01*
X119548642Y-95986361D01*
X119543659Y-96003331D01*
X119530908Y-96037518D01*
X119524501Y-96097116D01*
X119524501Y-96097123D01*
X119524500Y-96097135D01*
X119524500Y-97092870D01*
X119524501Y-97092876D01*
X119530908Y-97152481D01*
X119543659Y-97186669D01*
X119548642Y-97256361D01*
X119543659Y-97273331D01*
X119530908Y-97307518D01*
X119524501Y-97367116D01*
X119524501Y-97367123D01*
X119524500Y-97367135D01*
X119524500Y-98362870D01*
X119524501Y-98362876D01*
X119530908Y-98422481D01*
X119543659Y-98456669D01*
X119548642Y-98526361D01*
X119543659Y-98543331D01*
X119530908Y-98577518D01*
X119527954Y-98605000D01*
X119524501Y-98637123D01*
X119524500Y-98637135D01*
X119524500Y-99632870D01*
X119524501Y-99632876D01*
X119530908Y-99692481D01*
X119543659Y-99726669D01*
X119548642Y-99796361D01*
X119543659Y-99813331D01*
X119530908Y-99847518D01*
X119524501Y-99907116D01*
X119524501Y-99907123D01*
X119524500Y-99907135D01*
X119524500Y-100902870D01*
X119524501Y-100902876D01*
X119530908Y-100962481D01*
X119543659Y-100996669D01*
X119548642Y-101066361D01*
X119543659Y-101083331D01*
X119530908Y-101117518D01*
X119527729Y-101147093D01*
X119524501Y-101177123D01*
X119524500Y-101177135D01*
X119524500Y-102172870D01*
X119524501Y-102172876D01*
X119530908Y-102232481D01*
X119543659Y-102266669D01*
X119548642Y-102336361D01*
X119543659Y-102353331D01*
X119530908Y-102387518D01*
X119524501Y-102447116D01*
X119524500Y-102447135D01*
X119524500Y-103442870D01*
X119524501Y-103442876D01*
X119528196Y-103477247D01*
X119515789Y-103546006D01*
X119468178Y-103597143D01*
X119404906Y-103614500D01*
X117351669Y-103614500D01*
X117351653Y-103614499D01*
X117344057Y-103614499D01*
X117185943Y-103614499D01*
X117078587Y-103643265D01*
X117033210Y-103655424D01*
X117033209Y-103655425D01*
X116983096Y-103684359D01*
X116983095Y-103684360D01*
X116939689Y-103709420D01*
X116896285Y-103734479D01*
X116896282Y-103734481D01*
X116784481Y-103846282D01*
X116784475Y-103846290D01*
X116735406Y-103931282D01*
X116735406Y-103931283D01*
X116705423Y-103983214D01*
X116705423Y-103983215D01*
X116664499Y-104135943D01*
X116664499Y-104135945D01*
X116664499Y-104294054D01*
X116664498Y-104294054D01*
X116664499Y-104294057D01*
X116705423Y-104446785D01*
X116732886Y-104494351D01*
X116749500Y-104556352D01*
X116749500Y-132363330D01*
X116749499Y-132363348D01*
X116749499Y-132529054D01*
X116749498Y-132529054D01*
X116749499Y-132529057D01*
X116790423Y-132681785D01*
X116790910Y-132682628D01*
X116790922Y-132682672D01*
X116790932Y-132682667D01*
X116869475Y-132818709D01*
X116869479Y-132818714D01*
X116869480Y-132818716D01*
X116981284Y-132930520D01*
X117066254Y-132979577D01*
X117066255Y-132979578D01*
X117118209Y-133009574D01*
X117118210Y-133009575D01*
X117118212Y-133009575D01*
X117118215Y-133009577D01*
X117270943Y-133050501D01*
X117270946Y-133050501D01*
X117429055Y-133050501D01*
X117429057Y-133050501D01*
X117525252Y-133024724D01*
X117557346Y-133020500D01*
X118270398Y-133020500D01*
X118337437Y-133040185D01*
X118380883Y-133088205D01*
X118387715Y-133101614D01*
X118508028Y-133267213D01*
X118652786Y-133411971D01*
X118807749Y-133524556D01*
X118818390Y-133532287D01*
X118934607Y-133591503D01*
X119000776Y-133625218D01*
X119000778Y-133625218D01*
X119000781Y-133625220D01*
X119105137Y-133659127D01*
X119195465Y-133688477D01*
X119296557Y-133704488D01*
X119397648Y-133720500D01*
X119397649Y-133720500D01*
X119602351Y-133720500D01*
X119602352Y-133720500D01*
X119804534Y-133688477D01*
X119999219Y-133625220D01*
X120181610Y-133532287D01*
X120274590Y-133464732D01*
X120347213Y-133411971D01*
X120347215Y-133411968D01*
X120347219Y-133411966D01*
X120491966Y-133267219D01*
X120491968Y-133267215D01*
X120491971Y-133267213D01*
X120544732Y-133194590D01*
X120612287Y-133101610D01*
X120705220Y-132919219D01*
X120768477Y-132724534D01*
X120800500Y-132522352D01*
X120800500Y-132317648D01*
X120768477Y-132115466D01*
X120705220Y-131920781D01*
X120705218Y-131920778D01*
X120705218Y-131920776D01*
X120671503Y-131854607D01*
X120612287Y-131738390D01*
X120581126Y-131695500D01*
X120491971Y-131572786D01*
X120347213Y-131428028D01*
X120181613Y-131307715D01*
X120181612Y-131307714D01*
X120181610Y-131307713D01*
X120124653Y-131278691D01*
X119999223Y-131214781D01*
X119804534Y-131151522D01*
X119629995Y-131123878D01*
X119602352Y-131119500D01*
X119397648Y-131119500D01*
X119373329Y-131123351D01*
X119195465Y-131151522D01*
X119000776Y-131214781D01*
X118818386Y-131307715D01*
X118652786Y-131428028D01*
X118508028Y-131572786D01*
X118387715Y-131738385D01*
X118380883Y-131751795D01*
X118332909Y-131802591D01*
X118270398Y-131819500D01*
X118074500Y-131819500D01*
X118007461Y-131799815D01*
X117961706Y-131747011D01*
X117950500Y-131695500D01*
X117950500Y-104939500D01*
X117970185Y-104872461D01*
X118022989Y-104826706D01*
X118074500Y-104815500D01*
X119404906Y-104815500D01*
X119471945Y-104835185D01*
X119517700Y-104887989D01*
X119528195Y-104952752D01*
X119524500Y-104987127D01*
X119524500Y-104987128D01*
X119524500Y-104987132D01*
X119524500Y-105982870D01*
X119524501Y-105982876D01*
X119530908Y-106042481D01*
X119543659Y-106076669D01*
X119548642Y-106146361D01*
X119543659Y-106163331D01*
X119530908Y-106197518D01*
X119524501Y-106257116D01*
X119524500Y-106257135D01*
X119524500Y-107252870D01*
X119524501Y-107252876D01*
X119530908Y-107312481D01*
X119543659Y-107346669D01*
X119548642Y-107416361D01*
X119543659Y-107433331D01*
X119530908Y-107467518D01*
X119524501Y-107527116D01*
X119524500Y-107527127D01*
X119524500Y-108522870D01*
X119524501Y-108522876D01*
X119530908Y-108582483D01*
X119581202Y-108717328D01*
X119581206Y-108717335D01*
X119667452Y-108832544D01*
X119667455Y-108832547D01*
X119782664Y-108918793D01*
X119782671Y-108918797D01*
X119917517Y-108969091D01*
X119917516Y-108969091D01*
X119924444Y-108969835D01*
X119977127Y-108975500D01*
X121325500Y-108975499D01*
X121392539Y-108995184D01*
X121438294Y-109047987D01*
X121449500Y-109099499D01*
X121449500Y-136163330D01*
X121449499Y-136163348D01*
X121449499Y-136329054D01*
X121449498Y-136329054D01*
X121490423Y-136481785D01*
X121519358Y-136531900D01*
X121519359Y-136531904D01*
X121519360Y-136531904D01*
X121569480Y-136618716D01*
X121681284Y-136730520D01*
X121762031Y-136777139D01*
X121818215Y-136809577D01*
X121970943Y-136850501D01*
X121970946Y-136850501D01*
X122129054Y-136850501D01*
X122129057Y-136850501D01*
X122281785Y-136809577D01*
X122337969Y-136777139D01*
X122418716Y-136730520D01*
X122512417Y-136636819D01*
X122573740Y-136603334D01*
X122600098Y-136600500D01*
X141525501Y-136600500D01*
X141592540Y-136620185D01*
X141638295Y-136672989D01*
X141649501Y-136724500D01*
X141649501Y-136897876D01*
X141655908Y-136957483D01*
X141706202Y-137092328D01*
X141706206Y-137092335D01*
X141792452Y-137207544D01*
X141792455Y-137207547D01*
X141907664Y-137293793D01*
X141907671Y-137293797D01*
X141952618Y-137310561D01*
X142042517Y-137344091D01*
X142102127Y-137350500D01*
X142112685Y-137350499D01*
X142179723Y-137370179D01*
X142200372Y-137386818D01*
X142870591Y-138057037D01*
X142807007Y-138074075D01*
X142692993Y-138139901D01*
X142599901Y-138232993D01*
X142534075Y-138347007D01*
X142517037Y-138410591D01*
X141884728Y-137778282D01*
X141884727Y-137778282D01*
X141845380Y-137832439D01*
X141748904Y-138021782D01*
X141683242Y-138223869D01*
X141683242Y-138223872D01*
X141650000Y-138433753D01*
X141650000Y-138646246D01*
X141683242Y-138856127D01*
X141683242Y-138856130D01*
X141748904Y-139058217D01*
X141845375Y-139247550D01*
X141884728Y-139301716D01*
X142517037Y-138669408D01*
X142534075Y-138732993D01*
X142599901Y-138847007D01*
X142692993Y-138940099D01*
X142807007Y-139005925D01*
X142870590Y-139022962D01*
X142238282Y-139655269D01*
X142238282Y-139655270D01*
X142292449Y-139694624D01*
X142481782Y-139791095D01*
X142683870Y-139856757D01*
X142893754Y-139890000D01*
X143106246Y-139890000D01*
X143316127Y-139856757D01*
X143316130Y-139856757D01*
X143518217Y-139791095D01*
X143707554Y-139694622D01*
X143761716Y-139655270D01*
X143761717Y-139655270D01*
X143129408Y-139022962D01*
X143192993Y-139005925D01*
X143307007Y-138940099D01*
X143400099Y-138847007D01*
X143465925Y-138732993D01*
X143482962Y-138669408D01*
X144115270Y-139301717D01*
X144115270Y-139301716D01*
X144154622Y-139247554D01*
X144251095Y-139058217D01*
X144316757Y-138856130D01*
X144316757Y-138856127D01*
X144350000Y-138646246D01*
X144350000Y-138433753D01*
X144316757Y-138223872D01*
X144316757Y-138223869D01*
X144251095Y-138021782D01*
X144154624Y-137832449D01*
X144115270Y-137778282D01*
X144115269Y-137778282D01*
X143482962Y-138410590D01*
X143465925Y-138347007D01*
X143400099Y-138232993D01*
X143307007Y-138139901D01*
X143192993Y-138074075D01*
X143129409Y-138057037D01*
X143799627Y-137386818D01*
X143860950Y-137353333D01*
X143887307Y-137350499D01*
X143897872Y-137350499D01*
X143957483Y-137344091D01*
X144092331Y-137293796D01*
X144207546Y-137207546D01*
X144293796Y-137092331D01*
X144344091Y-136957483D01*
X144350500Y-136897873D01*
X144350499Y-135102128D01*
X144344091Y-135042517D01*
X144293796Y-134907669D01*
X144293795Y-134907668D01*
X144293793Y-134907664D01*
X144207547Y-134792455D01*
X144207544Y-134792452D01*
X144092335Y-134706206D01*
X144092328Y-134706202D01*
X143957482Y-134655908D01*
X143957483Y-134655908D01*
X143897883Y-134649501D01*
X143897881Y-134649500D01*
X143897873Y-134649500D01*
X143897864Y-134649500D01*
X142102129Y-134649500D01*
X142102123Y-134649501D01*
X142042516Y-134655908D01*
X141907671Y-134706202D01*
X141907664Y-134706206D01*
X141792455Y-134792452D01*
X141792452Y-134792455D01*
X141706206Y-134907664D01*
X141706202Y-134907671D01*
X141655908Y-135042517D01*
X141649501Y-135102116D01*
X141649501Y-135102123D01*
X141649500Y-135102135D01*
X141649500Y-135275500D01*
X141629815Y-135342539D01*
X141577011Y-135388294D01*
X141525500Y-135399500D01*
X122774500Y-135399500D01*
X122707461Y-135379815D01*
X122661706Y-135327011D01*
X122650500Y-135275500D01*
X122650500Y-110227401D01*
X122670185Y-110160362D01*
X122722989Y-110114607D01*
X122792147Y-110104663D01*
X122855703Y-110133688D01*
X122890682Y-110184068D01*
X122921645Y-110267086D01*
X122921649Y-110267093D01*
X123007809Y-110382187D01*
X123007812Y-110382190D01*
X123122906Y-110468350D01*
X123122913Y-110468354D01*
X123257620Y-110518596D01*
X123257627Y-110518598D01*
X123317155Y-110524999D01*
X123317172Y-110525000D01*
X123565000Y-110525000D01*
X123565000Y-108025000D01*
X124065000Y-108025000D01*
X124065000Y-110525000D01*
X124312828Y-110525000D01*
X124312844Y-110524999D01*
X124372372Y-110518598D01*
X124372375Y-110518597D01*
X124405949Y-110506075D01*
X124475640Y-110501089D01*
X124492619Y-110506075D01*
X124527511Y-110519089D01*
X124527512Y-110519089D01*
X124527517Y-110519091D01*
X124587127Y-110525500D01*
X125582872Y-110525499D01*
X125642483Y-110519091D01*
X125676667Y-110506340D01*
X125746358Y-110501357D01*
X125763327Y-110506338D01*
X125797517Y-110519091D01*
X125857127Y-110525500D01*
X126852872Y-110525499D01*
X126912483Y-110519091D01*
X126946667Y-110506340D01*
X127016358Y-110501357D01*
X127033327Y-110506338D01*
X127067517Y-110519091D01*
X127127127Y-110525500D01*
X128122872Y-110525499D01*
X128182483Y-110519091D01*
X128216667Y-110506340D01*
X128286358Y-110501357D01*
X128303327Y-110506338D01*
X128337517Y-110519091D01*
X128397127Y-110525500D01*
X129392872Y-110525499D01*
X129452483Y-110519091D01*
X129486667Y-110506340D01*
X129556358Y-110501357D01*
X129573327Y-110506338D01*
X129607517Y-110519091D01*
X129667127Y-110525500D01*
X130662872Y-110525499D01*
X130722483Y-110519091D01*
X130756667Y-110506340D01*
X130826358Y-110501357D01*
X130843327Y-110506338D01*
X130877517Y-110519091D01*
X130937127Y-110525500D01*
X131932872Y-110525499D01*
X131992483Y-110519091D01*
X132026667Y-110506340D01*
X132096358Y-110501357D01*
X132113327Y-110506338D01*
X132147517Y-110519091D01*
X132207127Y-110525500D01*
X133202872Y-110525499D01*
X133262483Y-110519091D01*
X133296667Y-110506340D01*
X133366358Y-110501357D01*
X133383327Y-110506338D01*
X133417517Y-110519091D01*
X133477127Y-110525500D01*
X134472872Y-110525499D01*
X134532483Y-110519091D01*
X134566667Y-110506340D01*
X134636358Y-110501357D01*
X134653327Y-110506338D01*
X134687517Y-110519091D01*
X134747127Y-110525500D01*
X135742872Y-110525499D01*
X135802483Y-110519091D01*
X135937331Y-110468796D01*
X136052546Y-110382546D01*
X136138796Y-110267331D01*
X136189091Y-110132483D01*
X136195500Y-110072873D01*
X136195499Y-108477128D01*
X136189091Y-108417517D01*
X136175853Y-108382025D01*
X136138797Y-108282671D01*
X136138793Y-108282664D01*
X136052547Y-108167455D01*
X136052544Y-108167452D01*
X135937335Y-108081206D01*
X135937328Y-108081202D01*
X135802482Y-108030908D01*
X135802483Y-108030908D01*
X135742883Y-108024501D01*
X135742881Y-108024500D01*
X135742873Y-108024500D01*
X135742864Y-108024500D01*
X134747129Y-108024500D01*
X134747123Y-108024501D01*
X134687518Y-108030908D01*
X134653331Y-108043659D01*
X134583639Y-108048642D01*
X134566669Y-108043659D01*
X134549140Y-108037121D01*
X134532483Y-108030909D01*
X134532482Y-108030908D01*
X134472883Y-108024501D01*
X134472881Y-108024500D01*
X134472873Y-108024500D01*
X134472864Y-108024500D01*
X133477129Y-108024500D01*
X133477123Y-108024501D01*
X133417518Y-108030908D01*
X133383331Y-108043659D01*
X133313639Y-108048642D01*
X133296669Y-108043659D01*
X133279140Y-108037121D01*
X133262483Y-108030909D01*
X133262482Y-108030908D01*
X133202883Y-108024501D01*
X133202881Y-108024500D01*
X133202873Y-108024500D01*
X133202864Y-108024500D01*
X132207129Y-108024500D01*
X132207123Y-108024501D01*
X132147518Y-108030908D01*
X132113331Y-108043659D01*
X132043639Y-108048642D01*
X132026669Y-108043659D01*
X132009140Y-108037121D01*
X131992483Y-108030909D01*
X131992482Y-108030908D01*
X131932883Y-108024501D01*
X131932881Y-108024500D01*
X131932873Y-108024500D01*
X131932864Y-108024500D01*
X130937129Y-108024500D01*
X130937123Y-108024501D01*
X130877518Y-108030908D01*
X130843331Y-108043659D01*
X130773639Y-108048642D01*
X130756669Y-108043659D01*
X130739140Y-108037121D01*
X130722483Y-108030909D01*
X130722482Y-108030908D01*
X130662883Y-108024501D01*
X130662881Y-108024500D01*
X130662873Y-108024500D01*
X130662864Y-108024500D01*
X129667129Y-108024500D01*
X129667123Y-108024501D01*
X129607518Y-108030908D01*
X129573331Y-108043659D01*
X129503639Y-108048642D01*
X129486669Y-108043659D01*
X129469140Y-108037121D01*
X129452483Y-108030909D01*
X129452482Y-108030908D01*
X129392883Y-108024501D01*
X129392881Y-108024500D01*
X129392873Y-108024500D01*
X129392864Y-108024500D01*
X128397129Y-108024500D01*
X128397123Y-108024501D01*
X128337518Y-108030908D01*
X128303331Y-108043659D01*
X128233639Y-108048642D01*
X128216669Y-108043659D01*
X128199140Y-108037121D01*
X128182483Y-108030909D01*
X128182482Y-108030908D01*
X128122883Y-108024501D01*
X128122881Y-108024500D01*
X128122873Y-108024500D01*
X128122864Y-108024500D01*
X127127129Y-108024500D01*
X127127123Y-108024501D01*
X127067518Y-108030908D01*
X127033331Y-108043659D01*
X126963639Y-108048642D01*
X126946669Y-108043659D01*
X126929140Y-108037121D01*
X126912483Y-108030909D01*
X126912482Y-108030908D01*
X126852883Y-108024501D01*
X126852881Y-108024500D01*
X126852873Y-108024500D01*
X126852864Y-108024500D01*
X125857129Y-108024500D01*
X125857123Y-108024501D01*
X125797518Y-108030908D01*
X125763331Y-108043659D01*
X125693639Y-108048642D01*
X125676669Y-108043659D01*
X125659140Y-108037121D01*
X125642483Y-108030909D01*
X125642482Y-108030908D01*
X125582883Y-108024501D01*
X125582881Y-108024500D01*
X125582873Y-108024500D01*
X125582864Y-108024500D01*
X124587129Y-108024500D01*
X124587123Y-108024501D01*
X124527520Y-108030908D01*
X124527517Y-108030908D01*
X124527517Y-108030909D01*
X124492620Y-108043925D01*
X124492617Y-108043926D01*
X124422925Y-108048909D01*
X124405952Y-108043925D01*
X124372379Y-108031403D01*
X124372372Y-108031401D01*
X124312844Y-108025000D01*
X124065000Y-108025000D01*
X123565000Y-108025000D01*
X123317155Y-108025000D01*
X123257627Y-108031401D01*
X123257620Y-108031403D01*
X123122913Y-108081645D01*
X123122906Y-108081649D01*
X123007812Y-108167809D01*
X123007809Y-108167812D01*
X122921649Y-108282906D01*
X122921645Y-108282913D01*
X122890682Y-108365931D01*
X122848811Y-108421865D01*
X122783346Y-108446282D01*
X122715073Y-108431430D01*
X122665668Y-108382025D01*
X122650500Y-108322598D01*
X122650500Y-103234392D01*
X122663679Y-103185215D01*
X122661465Y-103184298D01*
X122664575Y-103176788D01*
X122664575Y-103176786D01*
X122664577Y-103176784D01*
X122690763Y-103079057D01*
X122705501Y-103024057D01*
X122705501Y-102865942D01*
X122664577Y-102713215D01*
X122585520Y-102576284D01*
X122473716Y-102464480D01*
X122336785Y-102385423D01*
X122184058Y-102344499D01*
X122145094Y-102344499D01*
X122078055Y-102324814D01*
X122032300Y-102272010D01*
X122021804Y-102207245D01*
X122025500Y-102172873D01*
X122025499Y-101177128D01*
X122019091Y-101117517D01*
X122006340Y-101083332D01*
X122001357Y-101013642D01*
X122006340Y-100996669D01*
X122019091Y-100962483D01*
X122020127Y-100952844D01*
X126295000Y-100952844D01*
X126301401Y-101012372D01*
X126301403Y-101012379D01*
X126351645Y-101147086D01*
X126351649Y-101147093D01*
X126437809Y-101262187D01*
X126437812Y-101262190D01*
X126552906Y-101348350D01*
X126552913Y-101348354D01*
X126687620Y-101398596D01*
X126687627Y-101398598D01*
X126747155Y-101404999D01*
X126747172Y-101405000D01*
X127070000Y-101405000D01*
X127570000Y-101405000D01*
X127892828Y-101405000D01*
X127892844Y-101404999D01*
X127952377Y-101398597D01*
X127952379Y-101398597D01*
X128039165Y-101366227D01*
X128108857Y-101361241D01*
X128125835Y-101366227D01*
X128212621Y-101398597D01*
X128272155Y-101404999D01*
X128272172Y-101405000D01*
X128595000Y-101405000D01*
X129095000Y-101405000D01*
X129417828Y-101405000D01*
X129417844Y-101404999D01*
X129477377Y-101398597D01*
X129477379Y-101398597D01*
X129564165Y-101366227D01*
X129633857Y-101361241D01*
X129650835Y-101366227D01*
X129737621Y-101398597D01*
X129797155Y-101404999D01*
X129797172Y-101405000D01*
X130120000Y-101405000D01*
X130620000Y-101405000D01*
X130942828Y-101405000D01*
X130942844Y-101404999D01*
X131002372Y-101398598D01*
X131002379Y-101398596D01*
X131137086Y-101348354D01*
X131137093Y-101348350D01*
X131252187Y-101262190D01*
X131252190Y-101262187D01*
X131338350Y-101147093D01*
X131338354Y-101147086D01*
X131388596Y-101012379D01*
X131388598Y-101012372D01*
X131394999Y-100952844D01*
X131395000Y-100952827D01*
X131395000Y-100630000D01*
X130620000Y-100630000D01*
X130620000Y-101405000D01*
X130120000Y-101405000D01*
X130120000Y-100630000D01*
X129095000Y-100630000D01*
X129095000Y-101405000D01*
X128595000Y-101405000D01*
X128595000Y-100630000D01*
X127570000Y-100630000D01*
X127570000Y-101405000D01*
X127070000Y-101405000D01*
X127070000Y-100630000D01*
X126295000Y-100630000D01*
X126295000Y-100952844D01*
X122020127Y-100952844D01*
X122025500Y-100902873D01*
X122025499Y-99907128D01*
X122019091Y-99847517D01*
X122006340Y-99813332D01*
X122001357Y-99743642D01*
X122006340Y-99726669D01*
X122019091Y-99692483D01*
X122025500Y-99632873D01*
X122025500Y-99427844D01*
X126295000Y-99427844D01*
X126301401Y-99487372D01*
X126301403Y-99487383D01*
X126333772Y-99574168D01*
X126338756Y-99643859D01*
X126333772Y-99660832D01*
X126301403Y-99747616D01*
X126301401Y-99747627D01*
X126295000Y-99807155D01*
X126295000Y-100130000D01*
X127070000Y-100130000D01*
X127570000Y-100130000D01*
X128595000Y-100130000D01*
X129095000Y-100130000D01*
X130120000Y-100130000D01*
X130620000Y-100130000D01*
X131395000Y-100130000D01*
X131395000Y-99807172D01*
X131394999Y-99807155D01*
X131388597Y-99747622D01*
X131388597Y-99747620D01*
X131356227Y-99660835D01*
X131351241Y-99591143D01*
X131356227Y-99574165D01*
X131388597Y-99487379D01*
X131388597Y-99487377D01*
X131394999Y-99427844D01*
X131395000Y-99427827D01*
X131395000Y-99105000D01*
X130620000Y-99105000D01*
X130620000Y-100130000D01*
X130120000Y-100130000D01*
X130120000Y-99105000D01*
X129095000Y-99105000D01*
X129095000Y-100130000D01*
X128595000Y-100130000D01*
X128595000Y-99105000D01*
X127570000Y-99105000D01*
X127570000Y-100130000D01*
X127070000Y-100130000D01*
X127070000Y-99105000D01*
X126295000Y-99105000D01*
X126295000Y-99427844D01*
X122025500Y-99427844D01*
X122025499Y-98637128D01*
X122019091Y-98577517D01*
X122006340Y-98543332D01*
X122001357Y-98473642D01*
X122006340Y-98456669D01*
X122019091Y-98422483D01*
X122025500Y-98362873D01*
X122025500Y-97902844D01*
X126295000Y-97902844D01*
X126301401Y-97962372D01*
X126301403Y-97962383D01*
X126333772Y-98049168D01*
X126338756Y-98118859D01*
X126333772Y-98135832D01*
X126301403Y-98222616D01*
X126301401Y-98222627D01*
X126295000Y-98282155D01*
X126295000Y-98605000D01*
X127070000Y-98605000D01*
X127570000Y-98605000D01*
X128595000Y-98605000D01*
X129095000Y-98605000D01*
X130120000Y-98605000D01*
X130620000Y-98605000D01*
X131395000Y-98605000D01*
X131395000Y-98282172D01*
X131394999Y-98282155D01*
X131388597Y-98222622D01*
X131388597Y-98222620D01*
X131356227Y-98135835D01*
X131351241Y-98066143D01*
X131356227Y-98049165D01*
X131388597Y-97962379D01*
X131388597Y-97962377D01*
X131394999Y-97902844D01*
X131395000Y-97902827D01*
X131395000Y-97580000D01*
X130620000Y-97580000D01*
X130620000Y-98605000D01*
X130120000Y-98605000D01*
X130120000Y-97580000D01*
X129095000Y-97580000D01*
X129095000Y-98605000D01*
X128595000Y-98605000D01*
X128595000Y-97580000D01*
X127570000Y-97580000D01*
X127570000Y-98605000D01*
X127070000Y-98605000D01*
X127070000Y-97580000D01*
X126295000Y-97580000D01*
X126295000Y-97902844D01*
X122025500Y-97902844D01*
X122025499Y-97367128D01*
X122019091Y-97307517D01*
X122006340Y-97273332D01*
X122001357Y-97203642D01*
X122006340Y-97186669D01*
X122019091Y-97152483D01*
X122025500Y-97092873D01*
X122025499Y-96757155D01*
X126295000Y-96757155D01*
X126295000Y-97080000D01*
X127070000Y-97080000D01*
X127570000Y-97080000D01*
X128595000Y-97080000D01*
X129095000Y-97080000D01*
X130120000Y-97080000D01*
X130620000Y-97080000D01*
X131395000Y-97080000D01*
X131395000Y-96757172D01*
X131394999Y-96757155D01*
X131388598Y-96697627D01*
X131388596Y-96697620D01*
X131338354Y-96562913D01*
X131338350Y-96562906D01*
X131252190Y-96447812D01*
X131252187Y-96447809D01*
X131137093Y-96361649D01*
X131137086Y-96361645D01*
X131002379Y-96311403D01*
X131002372Y-96311401D01*
X130942844Y-96305000D01*
X130620000Y-96305000D01*
X130620000Y-97080000D01*
X130120000Y-97080000D01*
X130120000Y-96305000D01*
X129797155Y-96305000D01*
X129737627Y-96311401D01*
X129737616Y-96311403D01*
X129650832Y-96343772D01*
X129581141Y-96348756D01*
X129564168Y-96343772D01*
X129477383Y-96311403D01*
X129477372Y-96311401D01*
X129417844Y-96305000D01*
X129095000Y-96305000D01*
X129095000Y-97080000D01*
X128595000Y-97080000D01*
X128595000Y-96305000D01*
X128272155Y-96305000D01*
X128212627Y-96311401D01*
X128212616Y-96311403D01*
X128125832Y-96343772D01*
X128056141Y-96348756D01*
X128039168Y-96343772D01*
X127952383Y-96311403D01*
X127952372Y-96311401D01*
X127892844Y-96305000D01*
X127570000Y-96305000D01*
X127570000Y-97080000D01*
X127070000Y-97080000D01*
X127070000Y-96305000D01*
X126747155Y-96305000D01*
X126687627Y-96311401D01*
X126687620Y-96311403D01*
X126552913Y-96361645D01*
X126552906Y-96361649D01*
X126437812Y-96447809D01*
X126437809Y-96447812D01*
X126351649Y-96562906D01*
X126351645Y-96562913D01*
X126301403Y-96697620D01*
X126301401Y-96697627D01*
X126295000Y-96757155D01*
X122025499Y-96757155D01*
X122025499Y-96570524D01*
X122025499Y-96097129D01*
X122025498Y-96097123D01*
X122025497Y-96097116D01*
X122019091Y-96037517D01*
X122006340Y-96003332D01*
X122001357Y-95933642D01*
X122006340Y-95916669D01*
X122019091Y-95882483D01*
X122025500Y-95822873D01*
X122025499Y-94827128D01*
X122019091Y-94767517D01*
X122006340Y-94733332D01*
X122001357Y-94663642D01*
X122006340Y-94646669D01*
X122019091Y-94612483D01*
X122025500Y-94552873D01*
X122025499Y-93557128D01*
X122019091Y-93497517D01*
X122006340Y-93463332D01*
X122001357Y-93393642D01*
X122006338Y-93376672D01*
X122019091Y-93342483D01*
X122025500Y-93282873D01*
X122025499Y-92287128D01*
X122019091Y-92227517D01*
X122006073Y-92192616D01*
X122001090Y-92122926D01*
X122006075Y-92105949D01*
X122018597Y-92072375D01*
X122018598Y-92072372D01*
X122024999Y-92012844D01*
X122025000Y-92012827D01*
X122025000Y-91765000D01*
X119525000Y-91765000D01*
X119525000Y-92012839D01*
X119528700Y-92047242D01*
X119516296Y-92116002D01*
X119468687Y-92167140D01*
X119405411Y-92184500D01*
X118831367Y-92184500D01*
X118799275Y-92180275D01*
X118759058Y-92169499D01*
X118759057Y-92169499D01*
X118600943Y-92169499D01*
X118486397Y-92200192D01*
X118448214Y-92210423D01*
X118311284Y-92289481D01*
X118311281Y-92289483D01*
X118101286Y-92499478D01*
X117989481Y-92611282D01*
X117989477Y-92611287D01*
X117943489Y-92690943D01*
X117910423Y-92748215D01*
X117869499Y-92900943D01*
X117869499Y-92900945D01*
X117869499Y-93069046D01*
X117869500Y-93069059D01*
X117869500Y-95365500D01*
X117849815Y-95432539D01*
X117797011Y-95478294D01*
X117745500Y-95489500D01*
X109773760Y-95489500D01*
X109706721Y-95469815D01*
X109660966Y-95417011D01*
X109651022Y-95347853D01*
X109673442Y-95292615D01*
X109700605Y-95255226D01*
X109735051Y-95207816D01*
X109831557Y-95018412D01*
X109897246Y-94816243D01*
X109930500Y-94606287D01*
X109930500Y-94393713D01*
X109897246Y-94183757D01*
X109831557Y-93981588D01*
X109735051Y-93792184D01*
X109735049Y-93792181D01*
X109735048Y-93792179D01*
X109610109Y-93620213D01*
X109459786Y-93469890D01*
X109287815Y-93344948D01*
X109287814Y-93344947D01*
X109248205Y-93324765D01*
X109197409Y-93276791D01*
X109180500Y-93214281D01*
X109180500Y-91474500D01*
X109200185Y-91407461D01*
X109252989Y-91361706D01*
X109304500Y-91350500D01*
X135325500Y-91350500D01*
X135392539Y-91370185D01*
X135438294Y-91422989D01*
X135449500Y-91474500D01*
X135449500Y-97713330D01*
X135449499Y-97713348D01*
X135449499Y-97879054D01*
X135449498Y-97879054D01*
X135490423Y-98031785D01*
X135519358Y-98081900D01*
X135519359Y-98081904D01*
X135519360Y-98081904D01*
X135550496Y-98135835D01*
X135569479Y-98168714D01*
X135569481Y-98168717D01*
X135746284Y-98345520D01*
X135833095Y-98395639D01*
X135833097Y-98395641D01*
X135871151Y-98417611D01*
X135883215Y-98424577D01*
X136035943Y-98465501D01*
X136035946Y-98465501D01*
X136201653Y-98465501D01*
X136201669Y-98465500D01*
X136904906Y-98465500D01*
X136971945Y-98485185D01*
X137017700Y-98537989D01*
X137028195Y-98602752D01*
X137024500Y-98637127D01*
X137024500Y-98637128D01*
X137024500Y-98637132D01*
X137024500Y-99632870D01*
X137024501Y-99632876D01*
X137030908Y-99692481D01*
X137043659Y-99726669D01*
X137048642Y-99796361D01*
X137043659Y-99813331D01*
X137030908Y-99847518D01*
X137024501Y-99907116D01*
X137024501Y-99907123D01*
X137024500Y-99907135D01*
X137024500Y-100902870D01*
X137024501Y-100902876D01*
X137030908Y-100962481D01*
X137043659Y-100996669D01*
X137048642Y-101066361D01*
X137043659Y-101083331D01*
X137030908Y-101117518D01*
X137027729Y-101147093D01*
X137024501Y-101177123D01*
X137024500Y-101177135D01*
X137024500Y-102172870D01*
X137024501Y-102172876D01*
X137030908Y-102232481D01*
X137043659Y-102266669D01*
X137048642Y-102336361D01*
X137043659Y-102353331D01*
X137030908Y-102387518D01*
X137024501Y-102447116D01*
X137024500Y-102447135D01*
X137024500Y-103442870D01*
X137024501Y-103442876D01*
X137030908Y-103502481D01*
X137043659Y-103536669D01*
X137048642Y-103606361D01*
X137043659Y-103623331D01*
X137030908Y-103657518D01*
X137024501Y-103717116D01*
X137024501Y-103717123D01*
X137024500Y-103717135D01*
X137024500Y-104712870D01*
X137024501Y-104712876D01*
X137030908Y-104772481D01*
X137043659Y-104806669D01*
X137048642Y-104876361D01*
X137043659Y-104893331D01*
X137030908Y-104927518D01*
X137024501Y-104987116D01*
X137024501Y-104987123D01*
X137024500Y-104987135D01*
X137024500Y-105982870D01*
X137024501Y-105982876D01*
X137030908Y-106042481D01*
X137043659Y-106076669D01*
X137048642Y-106146361D01*
X137043659Y-106163331D01*
X137030908Y-106197518D01*
X137024501Y-106257116D01*
X137024500Y-106257135D01*
X137024500Y-107252870D01*
X137024501Y-107252876D01*
X137030908Y-107312481D01*
X137043659Y-107346669D01*
X137048642Y-107416361D01*
X137043659Y-107433331D01*
X137030908Y-107467518D01*
X137024501Y-107527116D01*
X137024500Y-107527127D01*
X137024500Y-108522870D01*
X137024501Y-108522876D01*
X137030908Y-108582483D01*
X137081202Y-108717328D01*
X137081206Y-108717335D01*
X137167452Y-108832544D01*
X137167455Y-108832547D01*
X137282664Y-108918793D01*
X137282671Y-108918797D01*
X137417517Y-108969091D01*
X137417516Y-108969091D01*
X137424444Y-108969835D01*
X137477127Y-108975500D01*
X139072872Y-108975499D01*
X139132483Y-108969091D01*
X139267331Y-108918796D01*
X139382546Y-108832546D01*
X139468796Y-108717331D01*
X139519091Y-108582483D01*
X139525500Y-108522873D01*
X139525499Y-107527128D01*
X139521804Y-107492753D01*
X139534211Y-107423994D01*
X139581822Y-107372857D01*
X139645094Y-107355500D01*
X151954901Y-107355500D01*
X151977805Y-107362225D01*
X152001560Y-107364613D01*
X152013974Y-107372846D01*
X152021940Y-107375185D01*
X152032037Y-107382412D01*
X152037579Y-107386815D01*
X152131284Y-107480520D01*
X152212012Y-107527128D01*
X152268215Y-107559577D01*
X152307592Y-107570127D01*
X152367252Y-107606490D01*
X152397783Y-107669337D01*
X152399500Y-107689902D01*
X152399500Y-115413330D01*
X152399499Y-115413348D01*
X152399499Y-115579054D01*
X152399498Y-115579054D01*
X152399499Y-115579057D01*
X152440423Y-115731785D01*
X152443576Y-115737246D01*
X152445886Y-115741247D01*
X152519477Y-115868712D01*
X152519481Y-115868717D01*
X152631284Y-115980520D01*
X152718095Y-116030639D01*
X152718097Y-116030641D01*
X152743288Y-116045185D01*
X152768215Y-116059577D01*
X152920943Y-116100501D01*
X152920946Y-116100501D01*
X153079054Y-116100501D01*
X153079057Y-116100501D01*
X153231785Y-116059577D01*
X153262028Y-116042114D01*
X153324032Y-116025500D01*
X155059281Y-116025500D01*
X155126320Y-116045185D01*
X155169765Y-116093205D01*
X155189947Y-116132814D01*
X155189948Y-116132815D01*
X155314890Y-116304786D01*
X155465213Y-116455109D01*
X155637179Y-116580048D01*
X155637181Y-116580049D01*
X155637184Y-116580051D01*
X155646493Y-116584794D01*
X155697290Y-116632766D01*
X155714087Y-116700587D01*
X155691552Y-116766722D01*
X155646505Y-116805760D01*
X155637446Y-116810376D01*
X155637440Y-116810380D01*
X155583282Y-116849727D01*
X155583282Y-116849728D01*
X156215591Y-117482037D01*
X156152007Y-117499075D01*
X156037993Y-117564901D01*
X155944901Y-117657993D01*
X155879075Y-117772007D01*
X155862037Y-117835591D01*
X155229728Y-117203282D01*
X155229727Y-117203282D01*
X155190380Y-117257439D01*
X155093904Y-117446782D01*
X155028242Y-117648869D01*
X155028242Y-117648872D01*
X154995000Y-117858753D01*
X154995000Y-118071246D01*
X155028242Y-118281127D01*
X155028242Y-118281130D01*
X155093904Y-118483217D01*
X155190375Y-118672550D01*
X155229728Y-118726716D01*
X155862037Y-118094408D01*
X155879075Y-118157993D01*
X155944901Y-118272007D01*
X156037993Y-118365099D01*
X156152007Y-118430925D01*
X156215590Y-118447962D01*
X155583282Y-119080269D01*
X155583282Y-119080270D01*
X155637449Y-119119624D01*
X155826782Y-119216095D01*
X156028870Y-119281757D01*
X156238754Y-119315000D01*
X156451246Y-119315000D01*
X156661127Y-119281757D01*
X156661130Y-119281757D01*
X156863217Y-119216095D01*
X157052554Y-119119622D01*
X157106716Y-119080270D01*
X157106717Y-119080270D01*
X156474408Y-118447962D01*
X156537993Y-118430925D01*
X156652007Y-118365099D01*
X156745099Y-118272007D01*
X156810925Y-118157993D01*
X156827962Y-118094409D01*
X157460270Y-118726717D01*
X157460270Y-118726716D01*
X157499622Y-118672554D01*
X157596095Y-118483217D01*
X157661757Y-118281130D01*
X157661757Y-118281127D01*
X157695000Y-118071246D01*
X157695000Y-117858753D01*
X157661757Y-117648872D01*
X157661757Y-117648869D01*
X157596095Y-117446782D01*
X157499624Y-117257449D01*
X157460270Y-117203282D01*
X157460269Y-117203282D01*
X156827962Y-117835590D01*
X156810925Y-117772007D01*
X156745099Y-117657993D01*
X156652007Y-117564901D01*
X156537993Y-117499075D01*
X156474409Y-117482037D01*
X157106716Y-116849728D01*
X157052547Y-116810373D01*
X157052547Y-116810372D01*
X157043500Y-116805763D01*
X156992706Y-116757788D01*
X156975912Y-116689966D01*
X156998451Y-116623832D01*
X157043508Y-116584793D01*
X157052816Y-116580051D01*
X157132007Y-116522515D01*
X157224786Y-116455109D01*
X157224788Y-116455106D01*
X157224792Y-116455104D01*
X157375104Y-116304792D01*
X157375106Y-116304788D01*
X157375109Y-116304786D01*
X157500048Y-116132820D01*
X157500047Y-116132820D01*
X157500051Y-116132816D01*
X157596557Y-115943412D01*
X157662246Y-115741243D01*
X157695500Y-115531287D01*
X157695500Y-115318713D01*
X157662246Y-115108757D01*
X157596557Y-114906588D01*
X157500051Y-114717184D01*
X157500049Y-114717181D01*
X157500048Y-114717179D01*
X157375109Y-114545213D01*
X157224786Y-114394890D01*
X157052820Y-114269951D01*
X157044600Y-114265763D01*
X157044054Y-114265485D01*
X156993259Y-114217512D01*
X156976463Y-114149692D01*
X156998999Y-114083556D01*
X157044054Y-114044515D01*
X157052816Y-114040051D01*
X157074789Y-114024086D01*
X157224786Y-113915109D01*
X157224788Y-113915106D01*
X157224792Y-113915104D01*
X157375104Y-113764792D01*
X157375106Y-113764788D01*
X157375109Y-113764786D01*
X157500048Y-113592820D01*
X157500047Y-113592820D01*
X157500051Y-113592816D01*
X157596557Y-113403412D01*
X157662246Y-113201243D01*
X157695500Y-112991287D01*
X157695500Y-112778713D01*
X157662246Y-112568757D01*
X157596557Y-112366588D01*
X157500051Y-112177184D01*
X157500049Y-112177181D01*
X157500048Y-112177179D01*
X157375109Y-112005213D01*
X157261569Y-111891673D01*
X157228084Y-111830350D01*
X157233068Y-111760658D01*
X157274940Y-111704725D01*
X157305915Y-111687810D01*
X157437331Y-111638796D01*
X157552546Y-111552546D01*
X157638796Y-111437331D01*
X157689091Y-111302483D01*
X157695500Y-111242873D01*
X157695500Y-111069500D01*
X157715185Y-111002461D01*
X157767989Y-110956706D01*
X157819500Y-110945500D01*
X157875500Y-110945500D01*
X157942539Y-110965185D01*
X157988294Y-111017989D01*
X157999500Y-111069500D01*
X157999500Y-112663330D01*
X157999499Y-112663348D01*
X157999499Y-112829054D01*
X157999498Y-112829054D01*
X158040422Y-112981783D01*
X158067715Y-113029055D01*
X158067717Y-113029058D01*
X158119479Y-113118714D01*
X158119481Y-113118717D01*
X158238349Y-113237585D01*
X158238355Y-113237590D01*
X158250139Y-113249374D01*
X158250149Y-113249385D01*
X158254479Y-113253715D01*
X158254480Y-113253716D01*
X158366284Y-113365520D01*
X158431917Y-113403412D01*
X158453095Y-113415639D01*
X158453097Y-113415641D01*
X158491151Y-113437611D01*
X158503215Y-113444577D01*
X158655943Y-113485501D01*
X158655946Y-113485501D01*
X158821653Y-113485501D01*
X158821669Y-113485500D01*
X159649281Y-113485500D01*
X159716320Y-113505185D01*
X159759765Y-113553205D01*
X159779947Y-113592814D01*
X159779948Y-113592815D01*
X159904890Y-113764786D01*
X160055213Y-113915109D01*
X160227179Y-114040048D01*
X160227181Y-114040049D01*
X160227184Y-114040051D01*
X160236493Y-114044794D01*
X160287290Y-114092766D01*
X160304087Y-114160587D01*
X160281552Y-114226722D01*
X160236505Y-114265760D01*
X160227446Y-114270376D01*
X160227440Y-114270380D01*
X160173282Y-114309727D01*
X160173282Y-114309728D01*
X160805591Y-114942037D01*
X160742007Y-114959075D01*
X160627993Y-115024901D01*
X160534901Y-115117993D01*
X160469075Y-115232007D01*
X160452037Y-115295591D01*
X159819728Y-114663282D01*
X159819727Y-114663282D01*
X159780380Y-114717439D01*
X159683904Y-114906782D01*
X159618242Y-115108869D01*
X159618242Y-115108872D01*
X159585000Y-115318753D01*
X159585000Y-115531246D01*
X159618242Y-115741127D01*
X159618242Y-115741130D01*
X159683904Y-115943217D01*
X159780375Y-116132550D01*
X159819728Y-116186716D01*
X160452037Y-115554408D01*
X160469075Y-115617993D01*
X160534901Y-115732007D01*
X160627993Y-115825099D01*
X160742007Y-115890925D01*
X160805590Y-115907962D01*
X160173282Y-116540269D01*
X160173282Y-116540270D01*
X160227449Y-116579624D01*
X160416782Y-116676095D01*
X160618870Y-116741757D01*
X160828754Y-116775000D01*
X161041246Y-116775000D01*
X161251127Y-116741757D01*
X161251130Y-116741757D01*
X161453217Y-116676095D01*
X161642554Y-116579622D01*
X161696716Y-116540270D01*
X161696717Y-116540270D01*
X161064408Y-115907962D01*
X161127993Y-115890925D01*
X161242007Y-115825099D01*
X161335099Y-115732007D01*
X161400925Y-115617993D01*
X161417962Y-115554409D01*
X162050270Y-116186717D01*
X162050270Y-116186716D01*
X162089622Y-116132554D01*
X162186095Y-115943217D01*
X162251757Y-115741130D01*
X162251757Y-115741127D01*
X162285000Y-115531246D01*
X162285000Y-115318753D01*
X162251757Y-115108872D01*
X162251757Y-115108869D01*
X162186095Y-114906782D01*
X162089624Y-114717449D01*
X162050270Y-114663282D01*
X162050269Y-114663282D01*
X161417962Y-115295590D01*
X161400925Y-115232007D01*
X161335099Y-115117993D01*
X161242007Y-115024901D01*
X161127993Y-114959075D01*
X161064409Y-114942037D01*
X161696716Y-114309728D01*
X161642547Y-114270373D01*
X161642547Y-114270372D01*
X161633500Y-114265763D01*
X161582706Y-114217788D01*
X161565912Y-114149966D01*
X161588451Y-114083832D01*
X161633508Y-114044793D01*
X161642816Y-114040051D01*
X161722007Y-113982515D01*
X161814786Y-113915109D01*
X161814788Y-113915106D01*
X161814792Y-113915104D01*
X161965104Y-113764792D01*
X161965106Y-113764788D01*
X161965109Y-113764786D01*
X162090048Y-113592820D01*
X162090047Y-113592820D01*
X162090051Y-113592816D01*
X162186557Y-113403412D01*
X162252246Y-113201243D01*
X162285500Y-112991287D01*
X162285500Y-112778713D01*
X162252246Y-112568757D01*
X162186557Y-112366588D01*
X162090051Y-112177184D01*
X162090049Y-112177181D01*
X162090048Y-112177179D01*
X161965109Y-112005213D01*
X161851569Y-111891673D01*
X161818084Y-111830350D01*
X161823068Y-111760658D01*
X161864940Y-111704725D01*
X161895915Y-111687810D01*
X162027331Y-111638796D01*
X162142546Y-111552546D01*
X162228796Y-111437331D01*
X162279091Y-111302483D01*
X162285500Y-111242873D01*
X162285499Y-109447128D01*
X162279091Y-109387517D01*
X162228796Y-109252669D01*
X162228795Y-109252668D01*
X162228793Y-109252664D01*
X162142547Y-109137455D01*
X162142544Y-109137452D01*
X162027335Y-109051206D01*
X162027328Y-109051202D01*
X161892482Y-109000908D01*
X161892483Y-109000908D01*
X161832883Y-108994501D01*
X161832881Y-108994500D01*
X161832873Y-108994500D01*
X161832865Y-108994500D01*
X161659500Y-108994500D01*
X161592461Y-108974815D01*
X161546706Y-108922011D01*
X161535500Y-108870500D01*
X161535500Y-102306713D01*
X161552113Y-102244712D01*
X161559577Y-102231785D01*
X161600501Y-102079057D01*
X161600501Y-101920943D01*
X161559577Y-101768215D01*
X161480519Y-101631284D01*
X161368716Y-101519481D01*
X161162590Y-101313355D01*
X161162588Y-101313352D01*
X161043717Y-101194481D01*
X161043716Y-101194480D01*
X160956904Y-101144360D01*
X160956904Y-101144359D01*
X160956900Y-101144358D01*
X160906785Y-101115423D01*
X160754057Y-101074499D01*
X160595943Y-101074499D01*
X160588347Y-101074499D01*
X160588331Y-101074500D01*
X139645094Y-101074500D01*
X139578055Y-101054815D01*
X139532300Y-101002011D01*
X139521804Y-100937246D01*
X139525500Y-100902873D01*
X139525499Y-99907128D01*
X139519091Y-99847517D01*
X139506340Y-99813332D01*
X139501357Y-99743642D01*
X139506340Y-99726669D01*
X139519091Y-99692483D01*
X139525500Y-99632873D01*
X139525499Y-98637128D01*
X139519091Y-98577517D01*
X139506340Y-98543332D01*
X139501357Y-98473642D01*
X139506340Y-98456669D01*
X139519091Y-98422483D01*
X139525500Y-98362873D01*
X139525499Y-97367128D01*
X139519091Y-97307517D01*
X139506340Y-97273332D01*
X139501357Y-97203642D01*
X139506340Y-97186669D01*
X139519091Y-97152483D01*
X139525500Y-97092873D01*
X139525499Y-96097128D01*
X139519091Y-96037517D01*
X139506340Y-96003332D01*
X139501357Y-95933642D01*
X139506340Y-95916669D01*
X139519091Y-95882483D01*
X139525500Y-95822873D01*
X139525499Y-94827128D01*
X139519091Y-94767517D01*
X139506340Y-94733332D01*
X139501357Y-94663642D01*
X139506340Y-94646669D01*
X139519091Y-94612483D01*
X139525500Y-94552873D01*
X139525499Y-93557128D01*
X139519091Y-93497517D01*
X139506340Y-93463332D01*
X139501357Y-93393642D01*
X139506338Y-93376672D01*
X139519091Y-93342483D01*
X139525500Y-93282873D01*
X139525499Y-92287128D01*
X139519091Y-92227517D01*
X139506073Y-92192616D01*
X139501090Y-92122926D01*
X139506075Y-92105949D01*
X139518597Y-92072375D01*
X139518598Y-92072372D01*
X139524999Y-92012844D01*
X139525000Y-92012827D01*
X139525000Y-91765000D01*
X138399000Y-91765000D01*
X138331961Y-91745315D01*
X138286206Y-91692511D01*
X138275000Y-91641000D01*
X138275000Y-91515000D01*
X138149000Y-91515000D01*
X138081961Y-91495315D01*
X138036206Y-91442511D01*
X138025000Y-91391000D01*
X138025000Y-91265000D01*
X138525000Y-91265000D01*
X139525000Y-91265000D01*
X139525000Y-91017172D01*
X139524999Y-91017155D01*
X139518598Y-90957627D01*
X139518596Y-90957620D01*
X139468354Y-90822913D01*
X139468350Y-90822906D01*
X139382190Y-90707812D01*
X139382187Y-90707809D01*
X139267093Y-90621649D01*
X139267086Y-90621645D01*
X139132379Y-90571403D01*
X139132372Y-90571401D01*
X139072844Y-90565000D01*
X138525000Y-90565000D01*
X138525000Y-91265000D01*
X138025000Y-91265000D01*
X138025000Y-90565000D01*
X137477155Y-90565000D01*
X137417627Y-90571401D01*
X137417620Y-90571403D01*
X137282913Y-90621645D01*
X137282910Y-90621647D01*
X137248811Y-90647174D01*
X137183346Y-90671591D01*
X137115073Y-90656739D01*
X137065668Y-90607334D01*
X137050500Y-90547907D01*
X137050500Y-90489060D01*
X137050501Y-90489047D01*
X137050501Y-90320944D01*
X137050501Y-90320943D01*
X137009577Y-90168216D01*
X137008232Y-90165886D01*
X136999637Y-90150998D01*
X136983166Y-90083097D01*
X137006019Y-90017071D01*
X137060941Y-89973881D01*
X137107025Y-89965000D01*
X153525000Y-89965000D01*
X153525000Y-69149000D01*
X153544685Y-69081961D01*
X153597489Y-69036206D01*
X153649000Y-69025000D01*
X174875500Y-69025000D01*
X174942539Y-69044685D01*
X174988294Y-69097489D01*
X174999500Y-69149000D01*
X174999500Y-157375500D01*
X174979815Y-157442539D01*
X174927011Y-157488294D01*
X174875500Y-157499500D01*
X86124500Y-157499500D01*
X86057461Y-157479815D01*
X86011706Y-157427011D01*
X86000500Y-157375500D01*
X86000500Y-149552135D01*
X116559500Y-149552135D01*
X116559500Y-151447870D01*
X116559501Y-151447876D01*
X116565908Y-151507483D01*
X116616202Y-151642328D01*
X116616206Y-151642335D01*
X116702452Y-151757544D01*
X116702455Y-151757547D01*
X116817664Y-151843793D01*
X116817671Y-151843797D01*
X116952517Y-151894091D01*
X116952516Y-151894091D01*
X116959444Y-151894835D01*
X117012127Y-151900500D01*
X118907872Y-151900499D01*
X118967483Y-151894091D01*
X119102331Y-151843796D01*
X119217546Y-151757546D01*
X119303796Y-151642331D01*
X119354091Y-151507483D01*
X119360500Y-151447873D01*
X119360499Y-151337304D01*
X119380183Y-151270268D01*
X119396818Y-151249626D01*
X120057861Y-150588584D01*
X120080667Y-150673694D01*
X120139910Y-150776306D01*
X120223694Y-150860090D01*
X120326306Y-150919333D01*
X120411414Y-150942137D01*
X119702485Y-151651065D01*
X119702485Y-151651066D01*
X119766243Y-151697388D01*
X119962589Y-151797432D01*
X120172164Y-151865526D01*
X120389819Y-151900000D01*
X120610181Y-151900000D01*
X120827835Y-151865526D01*
X121037410Y-151797432D01*
X121233760Y-151697386D01*
X121297513Y-151651066D01*
X121297514Y-151651066D01*
X120588585Y-150942138D01*
X120673694Y-150919333D01*
X120776306Y-150860090D01*
X120860090Y-150776306D01*
X120919333Y-150673694D01*
X120942137Y-150588585D01*
X121651066Y-151297514D01*
X121651066Y-151297513D01*
X121697386Y-151233760D01*
X121797432Y-151037410D01*
X121865526Y-150827835D01*
X121900000Y-150610181D01*
X121900000Y-150389818D01*
X121865526Y-150172164D01*
X121797432Y-149962589D01*
X121697388Y-149766243D01*
X121651066Y-149702485D01*
X121651065Y-149702485D01*
X120942137Y-150411413D01*
X120919333Y-150326306D01*
X120860090Y-150223694D01*
X120776306Y-150139910D01*
X120673694Y-150080667D01*
X120588583Y-150057861D01*
X121297513Y-149348932D01*
X121233756Y-149302611D01*
X121037410Y-149202567D01*
X120827835Y-149134473D01*
X120610181Y-149100000D01*
X120389819Y-149100000D01*
X120172164Y-149134473D01*
X119962589Y-149202567D01*
X119766233Y-149302616D01*
X119702485Y-149348931D01*
X119702485Y-149348932D01*
X120411414Y-150057861D01*
X120326306Y-150080667D01*
X120223694Y-150139910D01*
X120139910Y-150223694D01*
X120080667Y-150326306D01*
X120057861Y-150411414D01*
X119396818Y-149750371D01*
X119363333Y-149689048D01*
X119360499Y-149662690D01*
X119360499Y-149552129D01*
X119360498Y-149552123D01*
X119360497Y-149552116D01*
X119354091Y-149492517D01*
X119303796Y-149357669D01*
X119303795Y-149357668D01*
X119303793Y-149357664D01*
X119217547Y-149242455D01*
X119217544Y-149242452D01*
X119102335Y-149156206D01*
X119102328Y-149156202D01*
X118967482Y-149105908D01*
X118967483Y-149105908D01*
X118907883Y-149099501D01*
X118907881Y-149099500D01*
X118907873Y-149099500D01*
X118907865Y-149099500D01*
X118684500Y-149099500D01*
X118617461Y-149079815D01*
X118571706Y-149027011D01*
X118560500Y-148975500D01*
X118560500Y-143748283D01*
X118580185Y-143681244D01*
X118632989Y-143635489D01*
X118702147Y-143625545D01*
X118757385Y-143647965D01*
X118803190Y-143681244D01*
X118818390Y-143692287D01*
X118928288Y-143748283D01*
X119000776Y-143785218D01*
X119000778Y-143785218D01*
X119000781Y-143785220D01*
X119105137Y-143819127D01*
X119195465Y-143848477D01*
X119296557Y-143864488D01*
X119397648Y-143880500D01*
X119397649Y-143880500D01*
X119602351Y-143880500D01*
X119602352Y-143880500D01*
X119804534Y-143848477D01*
X119999219Y-143785220D01*
X120181610Y-143692287D01*
X120274590Y-143624732D01*
X120347213Y-143571971D01*
X120347215Y-143571968D01*
X120347219Y-143571966D01*
X120491966Y-143427219D01*
X120491968Y-143427215D01*
X120491971Y-143427213D01*
X120544732Y-143354590D01*
X120612287Y-143261610D01*
X120705220Y-143079219D01*
X120768477Y-142884534D01*
X120800500Y-142682352D01*
X120800500Y-142477648D01*
X120797403Y-142458094D01*
X120768477Y-142275465D01*
X120711296Y-142099481D01*
X120705220Y-142080781D01*
X120705218Y-142080778D01*
X120705218Y-142080776D01*
X120671503Y-142014607D01*
X120612287Y-141898390D01*
X120604556Y-141887749D01*
X120491971Y-141732786D01*
X120347213Y-141588028D01*
X120181613Y-141467715D01*
X120181612Y-141467714D01*
X120181610Y-141467713D01*
X120124653Y-141438691D01*
X119999223Y-141374781D01*
X119804534Y-141311522D01*
X119629995Y-141283878D01*
X119602352Y-141279500D01*
X119397648Y-141279500D01*
X119373329Y-141283351D01*
X119195465Y-141311522D01*
X119000776Y-141374781D01*
X118818386Y-141467715D01*
X118652786Y-141588028D01*
X118508028Y-141732786D01*
X118387715Y-141898385D01*
X118380883Y-141911795D01*
X118332909Y-141962591D01*
X118270398Y-141979500D01*
X118199057Y-141979500D01*
X118040943Y-141979500D01*
X117888215Y-142020423D01*
X117888214Y-142020423D01*
X117888212Y-142020424D01*
X117888209Y-142020425D01*
X117838096Y-142049359D01*
X117838095Y-142049360D01*
X117794689Y-142074420D01*
X117751285Y-142099479D01*
X117751282Y-142099481D01*
X117479481Y-142371282D01*
X117479479Y-142371285D01*
X117429361Y-142458094D01*
X117429359Y-142458096D01*
X117400425Y-142508209D01*
X117400424Y-142508210D01*
X117400423Y-142508215D01*
X117359499Y-142660943D01*
X117359499Y-142660945D01*
X117359499Y-142829046D01*
X117359500Y-142829059D01*
X117359500Y-148975500D01*
X117339815Y-149042539D01*
X117287011Y-149088294D01*
X117235501Y-149099500D01*
X117012130Y-149099500D01*
X117012123Y-149099501D01*
X116952516Y-149105908D01*
X116817671Y-149156202D01*
X116817664Y-149156206D01*
X116702455Y-149242452D01*
X116702452Y-149242455D01*
X116616206Y-149357664D01*
X116616202Y-149357671D01*
X116565908Y-149492517D01*
X116559501Y-149552116D01*
X116559501Y-149552123D01*
X116559500Y-149552135D01*
X86000500Y-149552135D01*
X86000500Y-141140357D01*
X86000505Y-141139240D01*
X86014306Y-139606894D01*
X86024926Y-138427764D01*
X86277518Y-110382187D01*
X86648893Y-69147882D01*
X86669181Y-69081024D01*
X86722394Y-69035746D01*
X86772888Y-69025000D01*
X105401000Y-69025000D01*
X105468039Y-69044685D01*
G37*
%TD.AperFunction*%
%TD*%
M02*
