%TF.GenerationSoftware,KiCad,Pcbnew,10.0.5*%
%TF.CreationDate,2026-08-12T23:42:37+03:00*%
%TF.ProjectId,ESP32_Radar_System,45535033-325f-4526-9164-61725f537973,rev?*%
%TF.SameCoordinates,Original*%
%TF.FileFunction,Paste,Top*%
%TF.FilePolarity,Positive*%
%FSLAX46Y46*%
G04 Gerber Fmt 4.6, Leading zero omitted, Abs format (unit mm)*
G04 Created by KiCad (PCBNEW 10.0.5) date 2026-08-12 23:42:37*
%MOMM*%
%LPD*%
G01*
G04 APERTURE LIST*
%ADD10R,1.500000X0.900000*%
%ADD11R,0.900000X1.500000*%
%ADD12R,1.050000X1.050000*%
G04 APERTURE END LIST*
D10*
%TO.C,U1*%
X120775000Y-91515000D03*
X120775000Y-92785000D03*
X120775000Y-94055000D03*
X120775000Y-95325000D03*
X120775000Y-96595000D03*
X120775000Y-97865000D03*
X120775000Y-99135000D03*
X120775000Y-100405000D03*
X120775000Y-101675000D03*
X120775000Y-102945000D03*
X120775000Y-104215000D03*
X120775000Y-105485000D03*
X120775000Y-106755000D03*
X120775000Y-108025000D03*
D11*
X123815000Y-109275000D03*
X125085000Y-109275000D03*
X126355000Y-109275000D03*
X127625000Y-109275000D03*
X128895000Y-109275000D03*
X130165000Y-109275000D03*
X131435000Y-109275000D03*
X132705000Y-109275000D03*
X133975000Y-109275000D03*
X135245000Y-109275000D03*
D10*
X138275000Y-108025000D03*
X138275000Y-106755000D03*
X138275000Y-105485000D03*
X138275000Y-104215000D03*
X138275000Y-102945000D03*
X138275000Y-101675000D03*
X138275000Y-100405000D03*
X138275000Y-99135000D03*
X138275000Y-97865000D03*
X138275000Y-96595000D03*
X138275000Y-95325000D03*
X138275000Y-94055000D03*
X138275000Y-92785000D03*
X138275000Y-91515000D03*
D12*
X127320000Y-97330000D03*
X127320000Y-98855000D03*
X127320000Y-100380000D03*
X128845000Y-97330000D03*
X128845000Y-98855000D03*
X128845000Y-100380000D03*
X130370000Y-97330000D03*
X130370000Y-98855000D03*
X130370000Y-100380000D03*
%TD*%
M02*
